<svg id="Capa_1" enable-background="new 0 0 512 512" height="512" viewBox="0 0 512 512" width="512" xmlns="http://www.w3.org/2000/svg"><g><g><path d="m451.972 472.175v-251.659l-189.524-157.161c-3.74-3.101-9.157-3.101-12.896 0l-189.524 157.161v251.659z" fill="#f4dd45"/><path d="m249.552 63.355-189.524 157.161v37.085l185.682-149.312c5.988-4.815 14.538-4.749 20.45.158l147.645 122.53c3.7 3.071 5.841 7.629 5.841 12.437v228.76h32.325v-251.658l-189.523-157.161c-3.739-3.101-9.157-3.101-12.896 0z" fill="#ecc32e"/><path d="m33.764 472.175h444.472v32.325h-444.472z" fill="#81a7c6"/><path d="m449.951 472.175h28.285v32.325h-28.285z" fill="#5c90b9"/><path d="m92.354 249.939h141.423v222.236h-141.423z" fill="#c17d4f"/><path d="m150.943 39.825h-80.813v121.811l80.813-67.016z" fill="#e49542"/><path d="m166.096 472.175-19.178-25.571c-3.189-4.252-8.194-6.754-13.509-6.754h-4.081c-5.453 0-10.571-2.634-13.741-7.071-3.17-4.438-8.287-7.071-13.741-7.071h-9.493v46.467z" fill="#e2f4f9"/><path d="m266.102 249.939h153.545v121.22h-153.545z" fill="#75cef9"/><path d="m395.402 249.939h24.244v121.22h-24.244z" fill="#6bbef6"/><path d="m345.904 371.159 19.178-25.571c3.189-4.252 8.194-6.754 13.509-6.754h4.081c5.453 0 10.571-2.634 13.741-7.071 3.17-4.438 8.287-7.071 13.741-7.071h9.493v46.467z" fill="#e2f4f9"/><path d="m266.102 371.159h153.545v32.325h-153.545z" fill="#5c90b9"/><path d="m395.402 371.159h24.244v32.325h-24.244z" fill="#4a80aa"/><path d="m134.78 272.163h56.569v76.772h-56.569z" fill="#b1e4f9" transform="matrix(0 1 -1 0 473.614 147.484)"/><path d="m160.035 39.825h-98.996c-3.347 0-6.061-2.714-6.061-6.061v-20.203c0-3.347 2.714-6.061 6.061-6.061h98.996c3.347 0 6.061 2.714 6.061 6.061v20.203c0 3.348-2.714 6.061-6.061 6.061z" fill="#e2f4f9"/><path d="m160.035 39.825h-18.183v-32.325h18.183c3.347 0 6.061 2.714 6.061 6.061v20.203c0 3.348-2.714 6.061-6.061 6.061z" fill="#b1e4f9"/><circle cx="256" cy="161.636" fill="#75cef9" r="42.427"/></g><path d="m249.552 12.847-232.535 192.834c-4.44 3.682-4.901 10.329-1.01 14.589l12.607 13.802c3.636 3.981 9.757 4.404 13.907.963l207.031-171.68c3.74-3.101 9.157-3.101 12.896 0l207.032 171.679c4.15 3.441 10.271 3.017 13.907-.963l12.607-13.802c3.89-4.259 3.43-10.906-1.01-14.589l-232.536-192.833c-3.739-3.101-9.157-3.101-12.896 0z" fill="#e2f4f9"/><path d="m444.641 214.437 24.838 20.597c4.15 3.441 10.271 3.017 13.907-.963l12.607-13.802c3.89-4.259 3.43-10.906-1.01-14.588l-24.435-20.263z" fill="#b1e4f9"/><g><path d="m124.679 346.333h76.772c4.143 0 7.5-3.358 7.5-7.5v-56.569c0-4.142-3.357-7.5-7.5-7.5h-76.772c-4.143 0-7.5 3.358-7.5 7.5v56.569c0 4.143 3.357 7.5 7.5 7.5zm7.5-56.569h61.772v41.569h-61.772z"/><path d="m201.451 363.659h-10.101c-4.143 0-7.5 3.358-7.5 7.5s3.357 7.5 7.5 7.5h10.102c4.143 0 7.5-3.358 7.5-7.5s-3.358-7.5-7.501-7.5z"/><path d="m478.24 464.67h-18.77v-173.67c0-4.142-3.357-7.5-7.5-7.5s-7.5 3.358-7.5 7.5v173.67h-203.194v-214.731c0-4.142-3.357-7.5-7.5-7.5h-141.422c-4.143 0-7.5 3.358-7.5 7.5v214.731h-17.324v-38.67c0-4.142-3.357-7.5-7.5-7.5s-7.5 3.358-7.5 7.5v38.67h-18.77c-4.143 0-7.5 3.358-7.5 7.5v32.33c0 4.142 3.357 7.5 7.5 7.5h291.61c4.143 0 7.5-3.358 7.5-7.5s-3.357-7.5-7.5-7.5h-284.11v-17.33h429.48v17.33h-110.37c-4.143 0-7.5 3.358-7.5 7.5s3.357 7.5 7.5 7.5h117.87c4.143 0 7.5-3.358 7.5-7.5v-32.33c0-4.142-3.357-7.5-7.5-7.5zm-251.964-207.231v207.231h-56.434l-16.925-22.565c-4.58-6.108-11.873-9.755-19.508-9.755h-4.081c-3.024 0-5.88-1.469-7.638-3.93-4.566-6.394-11.984-10.212-19.844-10.212h-1.993v-160.769zm-126.422 175.769h1.993c3.024 0 5.88 1.469 7.638 3.929 4.566 6.395 11.985 10.213 19.844 10.213h4.081c2.938 0 5.745 1.403 7.508 3.754l10.175 13.566h-51.239z"/><path d="m258.602 249.939v153.545c0 4.142 3.357 7.5 7.5 7.5h153.545c4.143 0 7.5-3.358 7.5-7.5v-153.545c0-4.142-3.357-7.5-7.5-7.5h-153.545c-4.143 0-7.5 3.358-7.5 7.5zm153.544 146.045h-138.544v-17.325h138.545v17.325zm0-32.325h-51.242l10.179-13.571c1.763-2.351 4.569-3.754 7.508-3.754h4.081c7.858 0 15.276-3.817 19.845-10.212 1.757-2.461 4.612-3.93 7.637-3.93h1.993v31.467zm-138.544-106.22h138.545v59.752h-1.993c-7.858 0-15.276 3.817-19.845 10.212-1.757 2.461-4.612 3.93-7.637 3.93h-4.081c-7.635 0-14.928 3.646-19.508 9.754l-16.929 22.571h-68.553v-106.219z"/><path d="m256 111.709c-27.529 0-49.927 22.397-49.927 49.927s22.397 49.927 49.927 49.927 49.927-22.397 49.927-49.927-22.398-49.927-49.927-49.927zm0 84.854c-19.259 0-34.927-15.668-34.927-34.927s15.668-34.927 34.927-34.927 34.927 15.668 34.927 34.927-15.668 34.927-34.927 34.927z"/><path d="m506.094 212.242c-.33-4.78-2.636-9.275-6.324-12.334l-232.534-192.834c-6.512-5.399-15.961-5.399-22.473 0h.001l-86.321 71.583v-31.332h1.591c7.478 0 13.562-6.083 13.562-13.561v-20.203c0-7.478-6.084-13.561-13.562-13.561h-98.995c-7.478 0-13.562 6.083-13.562 13.561v20.203c0 7.478 6.084 13.561 13.562 13.561h1.591v110.787l-50.4 41.795c-3.688 3.059-5.993 7.554-6.323 12.334-.331 4.779 1.332 9.548 4.562 13.085l12.606 13.801c6.344 6.947 16.989 7.685 24.232 1.679l5.223-4.331v154.525c0 4.142 3.357 7.5 7.5 7.5s7.5-3.358 7.5-7.5v-166.962l186.809-154.91c.963-.798 2.359-.798 3.322 0l186.809 154.91v31.962c0 4.142 3.357 7.5 7.5 7.5s7.5-3.358 7.5-7.5v-19.523l5.223 4.331c3.284 2.724 7.268 4.061 11.233 4.06 4.778 0 9.531-1.942 12.999-5.739l12.605-13.802c3.232-3.537 4.895-8.306 4.564-13.085zm-369.74-115.266h-18.318v-17.326h25.407v11.446zm-58.724-17.326h25.406v17.325h-25.406zm-15.152-64.65h96.118v17.325h-96.118zm80.965 32.325v17.325h-65.813v-17.325zm-65.813 64.651h40.636l-40.636 33.697zm412.825 103.235-12.606 13.802c-.938 1.027-2.512 1.136-3.582.248l-207.032-171.679c-3.255-2.699-7.245-4.049-11.235-4.049s-7.98 1.35-11.235 4.049l-207.032 171.679c-1.068.888-2.645.779-3.582-.248l-12.607-13.802c-.653-.716-.702-1.519-.674-1.934s.188-1.205.935-1.824l232.534-192.832h.001c.961-.798 2.358-.798 3.321 0l232.533 192.833c.747.619.907 1.409.936 1.824s-.021 1.217-.675 1.933z"/></g></g></svg>