<svg id="Layer_1" enable-background="new 0 0 512 512" height="512" viewBox="0 0 512 512" width="512" xmlns="http://www.w3.org/2000/svg"><g><path d="m376.019 504.5h-312.038c-11.035 0-19.981-8.946-19.981-19.981v-457.038c0-11.035 8.946-19.981 19.981-19.981h312.039c11.034 0 19.98 8.946 19.98 19.981v457.039c0 11.034-8.946 19.98-19.981 19.98z" fill="#f1f1f1"/><path d="m376.019 7.5h-30c11.035 0 19.981 8.946 19.981 19.981v457.039c0 11.035-8.946 19.981-19.981 19.981h30c11.035 0 19.981-8.946 19.981-19.981v-457.039c0-11.035-8.946-19.981-19.981-19.981z" fill="#e2e2e2"/><path d="m376 504.5h-312c-11.046 0-20-8.954-20-20v-32h352v32c0 11.046-8.954 20-20 20z" fill="#7be492"/><path d="m366 452.5v32c0 11.046-8.954 20-20 20h30c11.046 0 20-8.954 20-20v-32z" fill="#45d987"/><path d="m316.505 413.621h-198.29v-49.152c0-32.962 26.721-59.683 59.683-59.683h78.923c32.962 0 59.683 26.721 59.683 59.683v49.152z" fill="#42a5f5"/><path d="m256.822 304.786h-30c32.962 0 59.683 26.721 59.683 59.683v49.152h30v-49.152c0-32.962-26.721-59.683-59.683-59.683z" fill="#2196f3"/><path d="m197.532 263.711h39.658v64.487h-39.658z" fill="#e8916f"/><g><path d="m160.824 200.84c0 13.13-8.051 23.774-17.981 23.774-9.931 0-15.7-12.224-15.7-25.353 0-13.13 5.769-22.194 15.7-22.194 9.93-.001 17.981 10.643 17.981 23.773z" fill="#e8916f"/><path d="m273.897 200.84c0 13.13 8.051 23.774 17.981 23.774 9.931 0 15.7-12.224 15.7-25.353 0-13.13-5.769-22.194-15.7-22.194-9.93-.001-17.981 10.643-17.981 23.773z" fill="#d98868"/></g><path d="m151.526 208.604v-48.897c0-34.291 27.798-62.09 62.09-62.09h7.49c34.291 0 62.09 27.798 62.09 62.09v48.897c0 36.336-29.456 65.792-65.792 65.792h-.086c-36.336 0-65.792-29.456-65.792-65.792z" fill="#ebad88"/><path d="m221.106 97.617h-7.49c-3.845 0-7.603.368-11.255 1.037 28.915 5.297 50.835 30.607 50.835 61.053v48.897c0 31.188-21.709 57.289-50.835 64.063 4.807 1.118 9.809 1.729 14.957 1.729h.086c36.336 0 65.792-29.456 65.792-65.792v-48.897c-.001-34.291-27.799-62.09-62.09-62.09z" fill="#e8916f"/><path d="m245.121 138.678s-6.32 34.992-73.198 26.012c-11.099-1.49-20.398 21.24-20.398 21.24s-7.885-4.064-11.253-25.44c-4.61-29.264 5.754-75.37 67.944-75.37 37.489 0 48.852 15.758 48.852 15.758s38.234-1.355 38.234 41.186c0 26.283-11.931 44.844-11.931 44.844s-3.41-9.435-18.465-21.135c-8.235-6.4-21.023-13.814-19.785-27.095z" fill="#d66d3c"/><g><path d="m257.069 100.879s-11.363-15.758-48.852-15.758c-5.297 0-10.21.342-14.778.972 13.09 1.765 21.615 5.631 26.807 8.968 5.132 3.298 10.809 5.604 16.737 7.043 11.329 2.75 28.322 11.601 28.322 39.962 0 8.166-1.153 15.585-2.74 21.936.81.602 1.596 1.192 2.345 1.774 15.054 11.7 18.465 21.135 18.465 21.135s11.931-18.561 11.931-44.844c-.002-42.543-38.237-41.188-38.237-41.188z" fill="#c75d2d"/></g><path d="m197.532 289.248s-1.898 26.291 19.829 38.95c0 0-12.354 13.795-24.851 9.413-9.901-3.472-15.504-21.94-17.404-29.462-.479-1.896.283-3.885 1.902-4.983z" fill="#f1f1f1"/><path d="m237.189 289.248s1.898 26.291-19.829 38.95c0 0 12.354 13.795 24.851 9.413 9.901-3.472 15.504-21.94 17.404-29.462.479-1.896-.283-3.885-1.902-4.983z" fill="#f1f1f1"/><path d="m338.795 302.49h29.999v62.609h-29.999z" fill="#d0d0d0" transform="matrix(.707 -.707 .707 .707 -132.404 347.936)"/><path d="m463.607 443.607c-5.858 5.858-15.355 5.858-21.212 0l-77.071-77.071 21.212-21.212 77.071 77.071c5.857 5.857 5.857 15.354 0 21.212z" fill="#ef483c"/><path d="m338.79 81.21c-65.61-65.61-171.98-65.61-237.58 0-65.61 65.6-65.61 171.97 0 237.58 65.6 65.6 171.97 65.6 237.58 0 65.6-65.61 65.6-171.98 0-237.58zm-21.21 216.37c-53.9 53.89-141.27 53.89-195.16 0-53.89-53.9-53.89-141.27 0-195.16s141.26-53.89 195.16 0c53.89 53.89 53.89 141.26 0 195.16z" fill="#497285"/><path d="m338.788 81.205c-36.622-36.623-85.946-52.792-133.792-48.529 37.866 3.375 74.807 19.544 103.792 48.529 65.607 65.607 65.607 171.976 0 237.583-28.984 28.984-65.925 45.154-103.792 48.529 47.845 4.264 97.169-11.906 133.792-48.529 65.607-65.607 65.607-171.976 0-237.583z" fill="#426778"/><g><path d="m189.6 213.247c4.142 0 7.5-3.357 7.5-7.5v-3.966c0-4.143-3.358-7.5-7.5-7.5s-7.5 3.357-7.5 7.5v3.966c0 4.143 3.358 7.5 7.5 7.5z"/><path d="m245.121 213.247c4.142 0 7.5-3.357 7.5-7.5v-3.966c0-4.143-3.358-7.5-7.5-7.5s-7.5 3.357-7.5 7.5v3.966c0 4.143 3.358 7.5 7.5 7.5z"/><path d="m468.91 417.091-65.41-65.41v-324.201c0-15.152-12.328-27.48-27.48-27.48h-23.78c-4.143 0-7.5 3.357-7.5 7.5s3.357 7.5 7.5 7.5h23.779c6.882 0 12.48 5.599 12.48 12.48v123.606c-7.945-27.547-22.742-53.518-44.408-75.185-68.426-68.425-179.764-68.427-248.19 0-2.929 2.93-2.929 7.678 0 10.607 2.929 2.928 7.678 2.928 10.606 0 62.579-62.579 164.401-62.577 226.976 0 30.314 30.313 47.009 70.617 47.009 113.487 0 42.871-16.694 83.175-47.009 113.488-62.576 62.578-164.397 62.578-226.976 0-54.472-54.472-62.585-140.143-19.287-203.705 2.332-3.424 1.447-8.089-1.977-10.421-3.423-2.334-8.089-1.447-10.421 1.976-10.543 15.479-18.292 32.159-23.322 49.392v-123.245c0-6.881 5.599-12.48 12.48-12.48h255.14c4.143 0 7.5-3.357 7.5-7.5s-3.357-7.5-7.5-7.5h-255.14c-15.152 0-27.48 12.328-27.48 27.48v457.04c0 15.152 12.328 27.48 27.48 27.48h312.04c15.152 0 27.48-12.328 27.48-27.48v-69.201l33.591 33.59c4.249 4.25 9.899 6.591 15.91 6.591 6.009 0 11.659-2.34 15.908-6.59 0-.001.001-.001.001-.001 4.25-4.249 6.59-9.899 6.59-15.908 0-6.011-2.341-11.661-6.59-15.91zm-130.242-87.818c1.833-1.685 3.646-3.405 5.423-5.182s3.497-3.59 5.182-5.423l26.659 26.652-10.611 10.611zm49.832-80.366v87.768l-29.516-29.508c13.714-17.76 23.547-37.565 29.516-58.26zm-80.971 103.206c.975 4.01 1.48 8.14 1.48 12.356v41.65h-183.289v-41.65c0-5.179.746-10.215 2.207-15.054 28.114 17.324 60.09 25.995 92.07 25.995 30.272.001 60.539-7.773 87.532-23.297zm80.971 92.887h-265.855c-4.142 0-7.5 3.357-7.5 7.5s3.358 7.5 7.5 7.5h265.855v24.52c0 6.882-5.599 12.48-12.48 12.48h-312.04c-6.881 0-12.48-5.599-12.48-12.48v-24.52h39.145c4.142 0 7.5-3.357 7.5-7.5s-3.358-7.5-7.5-7.5h-39.145v-195.938c8.034 27.625 22.919 53.547 44.402 75.03 6.073 6.073 12.489 11.596 19.178 16.591-2.88 7.567-4.36 15.537-4.36 23.787v49.15c0 4.143 3.358 7.5 7.5 7.5h198.29c4.143 0 7.5-3.357 7.5-7.5v-49.15c0-7.135-1.109-14.088-3.279-20.752 2.172-1.524 4.32-3.099 6.436-4.733l32.85 32.859c.023.023.049.043.073.066l28.411 28.41v44.68zm69.804-6.697c-1.417 1.417-3.301 2.197-5.303 2.197-2.003 0-3.887-.78-5.303-2.197l-71.767-71.766 10.605-10.605 71.767 71.767c1.416 1.416 2.196 3.3 2.196 5.303.001 2.001-.779 3.885-2.195 5.301z"/><path d="m117.115 302.879c27.48 27.48 64.018 42.615 102.882 42.615s75.402-15.135 102.882-42.615 42.615-64.019 42.615-102.882c0-38.864-15.135-75.401-42.615-102.883-27.48-27.48-64.019-42.615-102.882-42.615s-75.401 15.135-102.882 42.615c-27.481 27.481-42.616 64.019-42.616 102.883 0 38.863 15.135 75.401 42.616 102.882zm23.536-117.857c1.168 1.848 2.322 3.284 3.379 4.388v19.19c0 2.801.173 5.56.481 8.28-.551.149-1.108.231-1.671.231-4.445 0-8.2-8.175-8.2-17.851 0-10.035 3.519-13.232 6.011-14.238zm159.429 14.238c0 9.676-3.755 17.851-8.2 17.851-.559 0-1.113-.082-1.66-.229.307-2.72.481-5.48.481-8.281v-19.346c.602-1.06 1.427-2.593 2.364-4.543 2.403.534 7.015 3.057 7.015 14.548zm-17.813-27.472c-3.07-3.551-7.213-7.627-12.756-11.936-1.088-.845-2.25-1.707-3.45-2.597-8.292-6.143-14.111-11.021-13.472-17.882.373-4-2.472-7.583-6.452-8.127-.344-.047-.686-.07-1.024-.07-3.574 0-6.72 2.557-7.372 6.168-.011.059-1.394 6.147-8.705 11.756-7.94 6.092-24.121 12.45-56.115 8.156-9.667-1.3-17.279 6.654-22.222 14.202-1.104-2.958-2.194-6.91-3.018-12.136-1.09-6.918-3.482-30.852 11.487-48.363 10.402-12.169 26.904-18.339 49.048-18.339 17.085 0 27.883 3.524 33.933 6.48 5.901 2.884 8.502 5.784 8.881 6.231 1.426 2.115 3.683 3.093 6.264 3.042.133 0 12.98-.222 21.742 8.329 5.817 5.676 8.767 14.209 8.767 25.361.001 12.091-2.796 22.464-5.536 29.725zm-123.237 36.812v-21.125c3.748-8.403 9.682-15.633 11.896-15.351 41.653 5.592 62.215-5.039 72.262-15.551 4.07 5.42 9.588 9.508 13.944 12.735 1.104.818 2.175 1.61 3.175 2.388 9.739 7.569 13.932 13.93 15.395 16.567v20.337c0 32.147-26.153 58.301-58.38 58.301-32.143-.001-58.292-26.154-58.292-58.301zm119.187 108.255c-5.08 2.537-10.321 4.729-15.69 6.574 1.486-3.639 2.649-7.221 3.526-10.318 4.209.749 8.289 1.999 12.164 3.744zm-26.377-8.604c-2.533 9.274-6.032 16.755-9.483 20.345-3.29.565-6.613 1.001-9.962 1.315-1.01-.413-1.981-.911-2.89-1.453 8.528-8.019 12.32-17.943 13.979-25.875zm-34.44-26.351c4.189 0 8.291-.372 12.29-1.051v11.86c0 .02.003.039.003.059-.277 5.659-2.112 18.133-12.335 26.347-10.213-8.19-12.058-20.572-12.334-26.275.001-.044.007-.086.007-.13v-11.871c4.023.685 8.151 1.061 12.369 1.061zm-26.165 20.683c1.66 7.931 5.451 17.854 13.977 25.873-.594.354-1.219.682-1.859.988-4.073-.515-8.103-1.215-12.079-2.104-3.099-3.961-6.125-10.834-8.385-19.097zm-22.56 10.525c.684 2.412 1.559 5.169 2.629 8.027-4.043-1.625-8.003-3.453-11.866-5.481 2.987-1.129 6.078-1.982 9.237-2.546zm-40.954-205.386c24.648-24.648 57.418-38.223 92.275-38.223s67.627 13.574 92.275 38.223c24.648 24.647 38.223 57.418 38.223 92.275 0 34.856-13.574 67.627-38.223 92.274-5.898 5.898-12.266 11.155-19.012 15.751-9.175-5.946-19.591-9.516-30.535-10.465-.259-.208-.526-.407-.805-.594l-17.23-11.688v-8.664c19.93-8.027 35.54-24.558 42.318-45.085 1.592.373 3.218.584 4.872.584 13.443 0 23.2-13.815 23.2-32.851 0-14.744-6.431-25.464-16.555-28.68 2.365-7.827 4.279-17.539 4.279-28.514 0-15.44-4.524-27.637-13.447-36.249-9.993-9.646-22.718-11.835-28.89-12.313-5.659-5.417-20.678-15.882-52.25-15.882-26.729 0-47.068 7.938-60.45 23.593-12.914 15.107-18.484 37.703-14.902 60.443.553 3.51 1.226 6.626 1.977 9.405-9.34 3.714-15.201 14.122-15.201 28.198 0 19.035 9.757 32.851 23.2 32.851 1.658 0 3.287-.212 4.882-.586 6.774 20.513 22.374 37.038 42.308 45.071v8.679l-17.207 11.673c-.286.192-.56.398-.825.611-9.805.856-19.252 3.839-27.723 8.749-5.838-4.177-11.377-8.859-16.554-14.036-24.648-24.647-38.222-57.418-38.222-92.274 0-34.858 13.574-67.629 38.222-92.276z"/></g></g></svg>