<svg id="Capa_1" enable-background="new 0 0 512 512" height="512" viewBox="0 0 512 512" width="512" xmlns="http://www.w3.org/2000/svg"><g><path d="m33.684 201.966h444.632v258.37h-444.632z" fill="#fefaf4"/><path d="m448.316 201.966h30v258.37h-30z" fill="#e7e7e7"/><path d="m454.38 21.363h-399.715c-2.785 0-5.204 1.917-5.841 4.628l-39.593 168.603c-.884 3.766 1.973 7.372 5.841 7.372h481.856c3.868 0 6.725-3.606 5.841-7.372l-38.919-165.727c-1.032-4.396-4.954-7.504-9.47-7.504z" fill="#b9d4e2"/><path d="m502.769 194.594-38.918-165.727c-1.032-4.396-4.954-7.504-9.47-7.504h-23.421l34.81 148.231c.884 3.766-1.973 7.372-5.841 7.372h-446.558l-4.14 17.628c-.884 3.766 1.973 7.372 5.841 7.372h481.856c3.868 0 6.725-3.606 5.841-7.372z" fill="#9ecbe2"/><path d="m504.5 490.636h-497v-31.981c0-7.681 6.227-13.907 13.907-13.907h469.186c7.681 0 13.907 6.227 13.907 13.907z" fill="#c9c9c9"/><path d="m490.592 444.748h-30c7.681 0 13.907 6.227 13.907 13.907v31.981h30v-31.981c.001-7.681-6.226-13.907-13.907-13.907z" fill="#b8b8b8"/><path d="m149.689 201.966h212.621v242.782h-212.621z" fill="#e7e7e7"/><path d="m189.349 242.136h133.302v202.612h-133.302z" fill="#d88a55"/><path d="m292.651 242.136v136.547c0 19.918-16.147 36.064-36.064 36.064h-67.238v30h133.302v-202.611z" fill="#b5703e"/><path d="m149.689 201.966h39.659v242.782h-39.659z" fill="#b8b8b8"/><path d="m322.651 201.966h39.659v242.782h-39.659z" fill="#b8b8b8"/><path d="m279.796 329.019h-49.12c-2.5 0-4.526-2.027-4.526-4.526v-40.394c0-2.5 2.027-4.526 4.526-4.526h49.12c2.5 0 4.526 2.026 4.526 4.526v40.394c.001 2.499-2.026 4.526-4.526 4.526z" fill="#eab065"/><path d="m279.796 413.321h-49.12c-2.5 0-4.526-2.027-4.526-4.526v-40.395c0-2.5 2.027-4.526 4.526-4.526h49.12c2.5 0 4.526 2.026 4.526 4.526v40.394c.001 2.5-2.026 4.527-4.526 4.527z" fill="#eab065"/><g fill="#b9d4e2"><path d="m109.023 307.872h-32.103c-3.314 0-6-2.686-6-6v-64.44c0-3.314 2.686-6 6-6h32.104c3.314 0 6 2.686 6 6v64.44c-.001 3.314-2.687 6-6.001 6z"/><path d="m109.023 417.778h-32.103c-3.314 0-6-2.686-6-6v-64.44c0-3.314 2.686-6 6-6h32.104c3.314 0 6 2.686 6 6v64.44c-.001 3.314-2.687 6-6.001 6z"/><path d="m437.052 307.872h-32.103c-3.314 0-6-2.686-6-6v-64.44c0-3.314 2.686-6 6-6h32.103c3.314 0 6 2.686 6 6v64.44c0 3.314-2.687 6-6 6z"/><path d="m437.052 417.778h-32.103c-3.314 0-6-2.686-6-6v-64.44c0-3.314 2.686-6 6-6h32.103c3.314 0 6 2.686 6 6v64.44c0 3.314-2.687 6-6 6z"/></g><g><path d="m490.592 437.248h-4.776v-227.782h11.111c4.149 0 8.005-1.865 10.581-5.115 2.576-3.251 3.51-7.432 2.562-11.471l-38.918-165.727c-1.838-7.825-8.734-13.289-16.771-13.289h-348.668c-4.143 0-7.5 3.358-7.5 7.5s3.357 7.5 7.5 7.5h348.667c1.039 0 1.931.706 2.168 1.719l5.793 24.666h-412.683l6.196-26.385h19.859c4.142 0 7.5-3.358 7.5-7.5s-3.358-7.5-7.5-7.5h-21.047c-6.298 0-11.703 4.282-13.143 10.414l-39.593 168.602c-.948 4.038-.015 8.219 2.562 11.47 2.576 3.251 6.433 5.116 10.581 5.116h11.112v227.782h-4.777c-11.805 0-21.408 9.603-21.408 21.407v31.981c0 4.142 3.358 7.5 7.5 7.5h497c4.143 0 7.5-3.358 7.5-7.5v-31.981c0-11.804-9.604-21.407-21.408-21.407zm-19.776 0h-101.006v-227.782h101.006zm-155.665-227.782v24.949h-118.303v-24.949zm-118.303 39.949h118.303v187.832h-118.303zm133.303-39.949h24.659v227.782h-24.659zm135.712-139.218 7.73 32.917h-101.112c-4.143 0-7.5 3.358-7.5 7.5s3.357 7.5 7.5 7.5h104.635l7.73 32.916h-457.693l7.73-32.916h307.598c4.143 0 7.5-3.358 7.5-7.5s-3.357-7.5-7.5-7.5h-304.075l7.73-32.917zm-442.232 95.833h464.738l6.666 28.385h-478.07zm17.553 43.385h101.005v108.117c0 4.142 3.357 7.5 7.5 7.5s7.5-3.358 7.5-7.5v-108.117h24.659v227.782h-24.659v-89.665c0-4.142-3.357-7.5-7.5-7.5s-7.5 3.358-7.5 7.5v89.665h-101.005zm455.816 273.67h-482v-24.481c0-3.533 2.874-6.407 6.407-6.407h469.185c3.533 0 6.407 2.874 6.407 6.407v24.481z"/><path d="m279.796 272.072h-49.12c-6.632 0-12.026 5.395-12.026 12.026v40.394c0 6.631 5.395 12.026 12.026 12.026h49.12c6.632 0 12.026-5.395 12.026-12.026v-40.394c.001-6.631-5.394-12.026-12.026-12.026zm-2.973 49.447h-43.173v-34.447h43.173z"/><path d="m279.796 356.374h-49.12c-6.632 0-12.026 5.395-12.026 12.026v40.395c0 6.631 5.395 12.026 12.026 12.026h49.12c6.632 0 12.026-5.395 12.026-12.026v-40.395c.001-6.632-5.394-12.026-12.026-12.026zm-2.973 49.447h-43.173v-34.447h43.173z"/><path d="m109.023 223.932h-32.103c-7.444 0-13.5 6.056-13.5 13.5v64.44c0 7.444 6.056 13.5 13.5 13.5h32.103c7.444 0 13.5-6.056 13.5-13.5v-64.44c0-7.444-6.056-13.5-13.5-13.5zm-1.5 15v23.22h-29.103v-23.22zm-29.103 61.44v-23.22h29.103v23.22z"/><path d="m109.023 333.838h-32.103c-7.444 0-13.5 6.056-13.5 13.5v64.44c0 7.444 6.056 13.5 13.5 13.5h32.103c7.444 0 13.5-6.056 13.5-13.5v-64.44c0-7.444-6.056-13.5-13.5-13.5zm-1.5 15v23.22h-29.103v-23.22zm-29.103 61.44v-23.22h29.103v23.22z"/><path d="m404.948 315.372h32.103c7.444 0 13.5-6.056 13.5-13.5v-64.44c0-7.444-6.056-13.5-13.5-13.5h-32.103c-7.444 0-13.5 6.056-13.5 13.5v64.44c0 7.444 6.055 13.5 13.5 13.5zm1.5-15v-23.22h29.103v23.22zm29.103-61.44v23.22h-29.103v-23.22z"/><path d="m404.948 425.278h32.103c7.444 0 13.5-6.056 13.5-13.5v-64.44c0-7.444-6.056-13.5-13.5-13.5h-32.103c-7.444 0-13.5 6.056-13.5 13.5v64.44c0 7.444 6.055 13.5 13.5 13.5zm1.5-15v-23.22h29.103v23.22zm29.103-61.44v23.22h-29.103v-23.22z"/></g></g></svg>