<svg id="Capa_1" enable-background="new 0 0 511.992 511.992" height="512" viewBox="0 0 511.992 511.992" width="512" xmlns="http://www.w3.org/2000/svg"><g><path d="m428.031 212.52-172.035-152.92-172.035 152.92v267.611h344.07z" fill="#eaf6ff"/><path d="m280.996 81.815-147.04 130.71v267.61h-50v-267.61l172.04-152.93z" fill="#d8ecfe"/><path d="m235.816 39.715-190.085 172.805 38.23 38.23 152.104-135.204c11.367-10.104 28.495-10.104 39.862 0l152.104 135.204 38.23-38.23-190.085-172.805c-11.442-10.402-28.917-10.402-40.36 0z" fill="#f07281"/><path d="m141.306 288.981h95.575v152.92h-95.575z" fill="#c68d7a"/><path d="m141.306 288.985h30v152.92h-30z" fill="#bc7c63"/><path d="m294.226 288.981h76.46v76.46h-76.46z" fill="#8ac9fe"/><path d="m294.226 288.985h30v76.46h-30z" fill="#60b7ff"/><circle cx="255.996" cy="212.52" fill="#8ac9fe" r="38.23"/><path d="m270.996 247.695c-4.6 1.96-9.67 3.05-15 3.05-21.11 0-38.23-17.11-38.23-38.23 0-21.11 17.12-38.23 38.23-38.23 5.33 0 10.4 1.09 15 3.06-13.66 5.83-23.23 19.38-23.23 35.17s9.57 29.34 23.23 35.18z" fill="#60b7ff"/><path d="m122.191 441.901h133.805v38.23h-133.805z" fill="#f07281"/><path d="m122.186 441.905h30v38.23h-30z" fill="#eb5569"/><path d="m474.034 419.216c-3.334 0-6.539.543-9.541 1.533-1.322-15.28-14.136-27.272-29.759-27.272-15.494 0-28.232 11.794-29.73 26.893-3.278-2.11-7.171-3.349-11.36-3.349-11.618 0-21.036 9.418-21.036 21.036-11.618 0-21.036 9.418-21.036 21.036s9.418 21.036 21.036 21.036h101.427c16.821 0 30.457-13.636 30.457-30.457s-13.637-30.456-30.458-30.456z" fill="#ade194"/><path d="m449.736 397.519c-8.09 4.69-13.76 13.08-14.73 22.85-3.28-2.11-7.17-3.35-11.36-3.35-11.62 0-21.04 9.42-21.04 21.04-11.62 0-21.03 9.42-21.03 21.04 0 11.61 9.41 21.03 21.03 21.03h-30c-11.62 0-21.03-9.42-21.03-21.03 0-11.62 9.41-21.04 21.03-21.04 0-11.62 9.42-21.04 21.04-21.04 4.19 0 8.08 1.24 11.36 3.35 1.5-15.1 14.23-26.89 29.73-26.89 5.47 0 10.6 1.47 15 4.04z" fill="#97da7b"/><g><path d="m324.206 296.486c4.143 0 7.5-3.358 7.5-7.5s-3.357-7.5-7.5-7.5h-29.979c-4.143 0-7.5 3.358-7.5 7.5v76.46c0 4.142 3.357 7.5 7.5 7.5h76.46c4.143 0 7.5-3.358 7.5-7.5v-76.46c0-4.142-3.357-7.5-7.5-7.5h-13.79c-4.143 0-7.5 3.358-7.5 7.5s3.357 7.5 7.5 7.5h6.29v61.46h-61.46v-61.46z"/><path d="m255.996 166.79c-25.216 0-45.73 20.514-45.73 45.73s20.514 45.73 45.73 45.73 45.73-20.514 45.73-45.73-20.515-45.73-45.73-45.73zm0 76.46c-16.944 0-30.73-13.786-30.73-30.73s13.786-30.73 30.73-30.73c16.945 0 30.73 13.786 30.73 30.73s-13.785 30.73-30.73 30.73z"/><path d="m504.492 472.631h-.256c4.862-6.38 7.756-14.336 7.756-22.958 0-21.686-20.211-39.89-41.694-37.773-4.82-14.802-18.727-25.557-34.761-25.906v-132.141l36.032-36.023c3.013-3.691 2.927-7.309-.258-10.853l-87.189-79.27c-3.063-2.787-7.808-2.562-10.595.504-2.786 3.065-2.561 7.808.505 10.595l81.369 73.979-27.667 27.659-146.828-130.506c-14.202-12.616-35.62-12.615-49.823.002l-146.825 130.502-27.667-27.659 184.27-167.518c8.628-7.845 21.64-7.845 30.27 0l78.71 71.55c3.063 2.785 7.807 2.561 10.595-.505 2.786-3.065 2.561-7.809-.505-10.595l-78.71-71.549c-14.379-13.074-36.069-13.074-50.45 0l-190.09 172.81c-3.185 3.544-3.271 7.162-.258 10.854l36.033 36.023v85.763c0 4.142 3.358 7.5 7.5 7.5s7.5-3.358 7.5-7.5v-85.502l149.591-132.961c8.522-7.57 21.376-7.571 29.896-.001l149.593 132.962v134.63c-9.562 3.897-17.156 11.635-20.811 21.436-13.813-3.024-30.498 7.42-33.823 21.174-12.51 3.024-21.831 14.314-21.831 27.741 0 4.896 1.24 9.506 3.421 13.537h-83.996v-30.73c0-4.142-3.357-7.5-7.5-7.5h-11.616v-145.42c0-4.142-3.358-7.5-7.5-7.5h-95.575c-4.142 0-7.5 3.358-7.5 7.5v145.42h-11.614c-4.142 0-7.5 3.358-7.5 7.5v30.73h-23.235v-100.336c0-4.142-3.358-7.5-7.5-7.5s-7.5 3.358-7.5 7.5v100.335h-68.956c-4.142 0-7.5 3.358-7.5 7.5s3.358 7.5 7.5 7.5h496.992c4.143 0 7.5-3.358 7.5-7.5s-3.358-7.5-7.5-7.5zm-355.687-176.15h80.575v137.92h-80.575zm-19.114 176.15v-23.23h118.805v23.23zm242.916 0c-7.464 0-13.536-6.072-13.536-13.537 0-7.464 6.072-13.536 13.536-13.536 4.143 0 7.5-3.358 7.5-7.5 0-7.464 6.085-13.095 13.536-13.536 9.353-.553 17.02 9.113 18.823-3.411 1.644-11.417 10.712-20.134 22.268-20.134 11.507 0 21.296 8.969 22.287 20.419 1.184 5.328 4.458 7.487 9.821 6.476 13.383-4.417 30.149 7.304 30.149 21.801 0 12.659-10.299 22.958-22.958 22.958z"/></g></g></svg>