<?xml version="1.0" encoding="iso-8859-1"?>
<!-- Generator: Adobe Illustrator 19.0.0, SVG Export Plug-In . SVG Version: 6.00 Build 0)  -->
<svg version="1.1" id="Capa_1" xmlns="http://www.w3.org/2000/svg" xmlns:xlink="http://www.w3.org/1999/xlink" x="0px" y="0px"
	 viewBox="0 0 512.002 512.002" style="enable-background:new 0 0 512.002 512.002;" xml:space="preserve">
<rect x="76.527" y="80.77" style="fill:#FF6D3A;" width="358.94" height="419.02"/>
<rect x="390.617" y="80.77" style="fill:#ED5729;" width="44.853" height="419.02"/>
<g>
	<path style="fill:#FFB125;" d="M298.325,504.427H213.67V346.181c0-3.122,2.531-5.653,5.653-5.653h73.349
		c3.122,0,5.653,2.531,5.653,5.653V504.427z"/>
	<path style="fill:#FFB125;" d="M444.889,301.3H67.105c-5.909,0-10.699-4.79-10.699-10.699l0,0c0-5.909,4.79-10.699,10.699-10.699
		H444.89c5.909,0,10.699,4.79,10.699,10.699l0,0C455.588,296.51,450.798,301.3,444.889,301.3z"/>
</g>
<g>
	<path style="fill:#B6FA4D;" d="M141.091,484.147c-0.263-14.858-11.606-27.011-26.122-28.54
		c-6.736-10.765-18.691-17.93-32.326-17.93c-21.05,0-38.114,17.064-38.114,38.113c0,2.872,0.328,5.666,0.93,8.356h95.632V484.147z"
		/>
	<path style="fill:#B6FA4D;" d="M344.95,484.147c0.621-12.741,11.146-22.88,24.04-22.88c1.749,0,3.451,0.197,5.094,0.552
		c5.051-13.134,17.779-22.458,32.692-22.458c10.465,0,19.852,4.596,26.27,11.873c1.659-0.292,3.364-0.453,5.107-0.453
		c16.189,0,29.313,13.124,29.313,29.313c0,1.376-0.102,2.727-0.286,4.053L344.95,484.147L344.95,484.147z"/>
</g>
<g>
	<path style="fill:#FFFFFF;" d="M174.999,421.12h-59.504v-67.331c0-1.551,1.257-2.809,2.809-2.809h53.887
		c1.551,0,2.809,1.258,2.809,2.809v67.331H174.999z"/>
	<path style="fill:#FFFFFF;" d="M396.5,421.12h-59.504v-67.331c0-1.551,1.258-2.809,2.809-2.809h53.887
		c1.551,0,2.809,1.258,2.809,2.809L396.5,421.12L396.5,421.12z"/>
	<path style="fill:#FFFFFF;" d="M175.589,238.859h-65.543v-73.033c0-1.709,1.385-3.094,3.094-3.094h59.356
		c1.709,0,3.094,1.385,3.094,3.094L175.589,238.859L175.589,238.859z"/>
	<path style="fill:#FFFFFF;" d="M288.769,238.859h-65.543v-73.033c0-1.709,1.385-3.094,3.094-3.094h59.356
		c1.709,0,3.094,1.385,3.094,3.094L288.769,238.859L288.769,238.859z"/>
	<path style="fill:#FFFFFF;" d="M401.948,238.859h-65.543v-73.033c0-1.709,1.385-3.094,3.094-3.094h59.356
		c1.709,0,3.094,1.385,3.094,3.094L401.948,238.859L401.948,238.859z"/>
</g>
<path style="fill:#45748C;" d="M432.816,22.414H79.178c-2.944,0-5.516,1.989-6.255,4.838l-19.261,74.174h404.671l-19.261-74.174
	C438.331,24.403,435.759,22.414,432.816,22.414z"/>
<path style="fill:#3C6A7C;" d="M439.071,27.252c-0.74-2.849-3.312-4.838-6.255-4.838h-45.293c2.944,0,5.515,1.989,6.255,4.838
	l10,38.511c3.091,11.903-5.894,23.519-18.192,23.519H56.815l-3.153,12.144H413.04h45.293L439.071,27.252z"/>
<path style="fill:#2D5872;" d="M345.275,122.096l-69.644-104.31c-4.389-6.575-11.729-10.499-19.634-10.499
	c-7.905,0-15.245,3.925-19.634,10.499l-69.644,104.311L345.275,122.096L345.275,122.096z"/>
<path style="fill:#E6E6E6;" d="M251.51,29.134l-57.606,86.281h124.185l-57.606-86.281C258.348,25.935,253.646,25.935,251.51,29.134z
	"/>
<path style="fill:#2D5872;" d="M452.567,122.096H59.427c-3.184,0-5.765-2.581-5.765-5.765v-14.904h404.671v14.904
	C458.332,119.515,455.751,122.096,452.567,122.096z"/>
<path style="fill:#77DD00;" d="M477.443,478.321H34.551c-7.288,0-13.196,5.908-13.196,13.196l0,0
	c0,7.288,5.908,13.196,13.196,13.196h442.893c7.288,0,13.196-5.908,13.196-13.196l0,0
	C490.64,484.229,484.732,478.321,477.443,478.321z"/>
<path style="fill:#6EC102;" d="M490.499,493.345L490.499,493.345c0.083-0.599,0.141-1.206,0.141-1.828
	c0-0.672-0.069-1.325-0.167-1.969v-0.033c-0.014-0.095-0.039-0.186-0.056-0.281c-0.073-0.411-0.162-0.815-0.272-1.212
	c-0.079-0.289-0.16-0.578-0.258-0.859c-0.055-0.155-0.12-0.304-0.18-0.456c-0.111-0.283-0.228-0.562-0.357-0.835
	c-0.029-0.06-0.049-0.125-0.079-0.185c-0.002,0.004-0.005,0.009-0.007,0.013c-2.148-4.367-6.622-7.38-11.819-7.38h-31.729
	l0.015,2.176c0.048,6.922-5.55,12.559-12.472,12.559H34.551c-5.193,0-9.672-3.007-11.826-7.367
	c-1.086,2.198-1.598,4.731-1.275,7.417c0.804,6.693,6.711,11.609,13.452,11.609h410.995h31.546c0.437,0,0.869-0.024,1.295-0.065
	c0.146-0.014,0.288-0.042,0.433-0.06c0.276-0.036,0.552-0.073,0.823-0.126c0.174-0.034,0.344-0.08,0.516-0.121
	c0.233-0.056,0.467-0.111,0.695-0.179c0.185-0.055,0.366-0.12,0.547-0.183c0.205-0.071,0.41-0.143,0.611-0.224
	c0.191-0.077,0.378-0.161,0.565-0.247c0.18-0.083,0.358-0.167,0.533-0.257c0.197-0.101,0.389-0.207,0.58-0.318
	c0.152-0.088,0.301-0.179,0.449-0.273c0.202-0.128,0.401-0.26,0.595-0.398c0.121-0.086,0.239-0.176,0.356-0.267
	c0.209-0.16,0.415-0.322,0.614-0.494c0.085-0.073,0.166-0.15,0.249-0.226c0.22-0.2,0.437-0.403,0.643-0.618
	c0.036-0.037,0.069-0.077,0.105-0.115C488.876,498.602,490.114,496.114,490.499,493.345
	C490.498,493.346,490.498,493.346,490.499,493.345z"/>
<path style="fill:#FF901D;" d="M455.527,289.464c-0.006-0.055-0.018-0.107-0.025-0.162c-0.039-0.324-0.089-0.645-0.157-0.96
	c-0.005-0.025-0.013-0.048-0.019-0.073c-0.158-0.71-0.387-1.392-0.678-2.041l0,0l0,0c-1.673-3.727-5.408-6.327-9.758-6.327h-33.98
	v0.473c0,6.727-5.453,12.181-12.181,12.181H67.104c-4.35,0-8.086-2.6-9.758-6.327c-0.6,1.336-0.941,2.813-0.941,4.372l0,0
	c0,5.909,4.79,10.699,10.699,10.699h377.785c5.909,0,10.699-4.79,10.699-10.699l0,0
	C455.588,290.217,455.566,289.838,455.527,289.464z"/>
<g>
	<path style="fill:#E6E6E6;" d="M172.496,162.732h-29.678v76.126h32.772v-73.033C175.589,164.118,174.204,162.732,172.496,162.732z"
		/>
	<path style="fill:#E6E6E6;" d="M285.951,162.732h-29.678v76.126h32.772v-73.033C289.045,164.118,287.66,162.732,285.951,162.732z"
		/>
	<path style="fill:#E6E6E6;" d="M398.854,162.732h-29.678v76.126h32.772v-73.033C401.948,164.118,400.563,162.732,398.854,162.732z"
		/>
	<path style="fill:#E6E6E6;" d="M393.691,350.98h-26.944v70.14h29.752v-67.332C396.5,352.237,395.242,350.98,393.691,350.98z"/>
	<path style="fill:#E6E6E6;" d="M172.19,350.98h-26.943v70.14h29.752v-67.332C174.999,352.237,173.741,350.98,172.19,350.98z"/>
</g>
<path d="M477.444,471.034h-3.833c-3.679-14.435-15.926-25.356-30.859-27.241V308.587h2.138c9.917,0,17.985-8.068,17.985-17.986
	c0-9.917-8.068-17.985-17.985-17.985h-2.138V129.382h9.815c7.197,0,13.052-5.855,13.052-13.052v-14.904
	c0-0.033-0.005-0.065-0.005-0.098c-0.001-0.098-0.009-0.196-0.015-0.294c-0.009-0.171-0.021-0.342-0.042-0.51
	c-0.011-0.089-0.026-0.177-0.041-0.266c-0.029-0.183-0.065-0.364-0.108-0.542c-0.01-0.04-0.014-0.081-0.024-0.121L446.123,25.42
	c-1.574-6.06-7.047-10.293-13.307-10.293h-49.105c-4.025,0-7.287,3.262-7.287,7.287s3.262,7.287,7.287,7.287h48.468l16.734,64.44
	H335.372L292.347,29.7h45.866c4.025,0,7.287-3.262,7.287-7.287s-3.262-7.287-7.287-7.287h-55.596l-0.926-1.387
	C275.948,5.137,266.342,0,255.997,0c-10.345,0-19.95,5.136-25.694,13.739l-0.927,1.388H79.178c-6.261,0-11.733,4.232-13.307,10.293
	L46.609,99.595c-0.01,0.04-0.014,0.081-0.024,0.121c-0.043,0.178-0.079,0.359-0.108,0.542c-0.014,0.089-0.03,0.177-0.041,0.266
	c-0.021,0.168-0.033,0.338-0.042,0.51c-0.005,0.098-0.014,0.196-0.015,0.294c0,0.033-0.005,0.065-0.005,0.098v14.904
	c0,7.197,5.855,13.052,13.052,13.052h9.815v143.233h-2.138c-9.917,0-17.985,8.068-17.985,17.985s8.068,17.986,17.985,17.986h2.138
	v46.696c0,4.024,3.262,7.287,7.287,7.287s7.287-3.262,7.287-7.287v-46.696h344.364v129.311c-0.055-0.032-0.113-0.06-0.169-0.092
	c-0.714-0.415-1.439-0.81-2.176-1.182c-0.144-0.073-0.291-0.139-0.435-0.21c-0.614-0.302-1.235-0.588-1.863-0.859
	c-0.213-0.092-0.425-0.183-0.639-0.272c-0.727-0.3-1.459-0.585-2.202-0.844c-0.044-0.015-0.087-0.033-0.131-0.049
	c-0.784-0.271-1.578-0.511-2.378-0.736c-0.219-0.062-0.44-0.118-0.66-0.176c-0.642-0.169-1.289-0.323-1.94-0.462
	c-0.188-0.04-0.375-0.085-0.564-0.123c-0.812-0.162-1.629-0.3-2.451-0.414c-0.178-0.025-0.358-0.042-0.537-0.064
	c-0.671-0.084-1.345-0.152-2.022-0.204c-0.234-0.018-0.468-0.036-0.702-0.051c-0.842-0.051-1.685-0.085-2.533-0.085
	c-15.446,0-29.699,8.61-37.062,21.915c-0.846-0.02-1.684,0.001-2.516,0.046c-0.195,0.011-0.387,0.034-0.581,0.048
	c-0.636,0.047-1.268,0.107-1.894,0.19c-0.23,0.031-0.458,0.071-0.686,0.107c-0.586,0.092-1.168,0.197-1.744,0.321
	c-0.234,0.05-0.465,0.104-0.697,0.159c-0.571,0.137-1.135,0.289-1.695,0.457c-0.217,0.065-0.435,0.128-0.65,0.198
	c-0.588,0.19-1.167,0.4-1.74,0.624c-0.171,0.067-0.345,0.127-0.515,0.197c-0.705,0.29-1.399,0.602-2.079,0.941
	c-0.028,0.014-0.058,0.026-0.086,0.04c-0.733,0.369-1.45,0.766-2.15,1.19c-0.066,0.04-0.129,0.086-0.195,0.127
	c-0.6,0.37-1.187,0.759-1.76,1.169c-0.184,0.132-0.361,0.272-0.542,0.408c-0.447,0.335-0.888,0.677-1.316,1.036
	c-0.206,0.172-0.407,0.351-0.609,0.529c-0.391,0.345-0.774,0.698-1.148,1.063c-0.201,0.196-0.401,0.394-0.597,0.596
	c-0.365,0.376-0.717,0.763-1.064,1.158c-0.178,0.203-0.359,0.404-0.533,0.612c-0.367,0.441-0.717,0.897-1.06,1.359
	c-0.131,0.176-0.269,0.346-0.396,0.525c-0.885,1.246-1.689,2.56-2.392,3.944h-35.457V346.181c0-7.135-5.805-12.939-12.939-12.939
	h-73.349c-7.135,0-12.939,5.805-12.939,12.939v124.853h-60.639c-0.188-0.469-0.399-0.925-0.605-1.383
	c-0.088-0.194-0.166-0.394-0.256-0.586c-0.353-0.749-0.728-1.483-1.128-2.202c-0.075-0.135-0.16-0.263-0.236-0.397
	c-0.331-0.577-0.673-1.147-1.034-1.703c-0.151-0.232-0.311-0.456-0.467-0.685c-0.305-0.448-0.616-0.891-0.94-1.324
	c-0.183-0.245-0.372-0.484-0.562-0.724c-0.32-0.405-0.646-0.803-0.982-1.193c-0.202-0.234-0.405-0.467-0.612-0.695
	c-0.352-0.388-0.714-0.766-1.081-1.138c-0.205-0.207-0.407-0.417-0.616-0.62c-0.419-0.405-0.852-0.794-1.29-1.178
	c-0.172-0.151-0.337-0.308-0.511-0.455c-0.622-0.525-1.259-1.031-1.914-1.513c-0.067-0.049-0.137-0.093-0.204-0.141
	c-0.588-0.426-1.188-0.836-1.801-1.226c-0.225-0.144-0.458-0.276-0.686-0.414c-0.467-0.283-0.938-0.562-1.418-0.824
	c-0.27-0.148-0.545-0.287-0.819-0.428c-0.456-0.234-0.916-0.461-1.383-0.676c-0.29-0.134-0.581-0.264-0.875-0.391
	c-0.473-0.203-0.953-0.394-1.436-0.578c-0.291-0.11-0.579-0.223-0.873-0.326c-0.528-0.186-1.065-0.353-1.604-0.514
	c-0.256-0.077-0.508-0.162-0.766-0.233c-0.8-0.221-1.608-0.421-2.428-0.588c-0.527-0.718-1.074-1.418-1.637-2.099
	c-0.193-0.233-0.398-0.452-0.595-0.681c-0.378-0.44-0.754-0.882-1.147-1.306c-0.246-0.265-0.505-0.514-0.757-0.772
	c-0.36-0.369-0.716-0.744-1.087-1.1c-0.277-0.265-0.566-0.514-0.849-0.772c-0.362-0.33-0.719-0.664-1.091-0.981
	c-0.301-0.257-0.614-0.498-0.921-0.747c-0.368-0.298-0.732-0.6-1.108-0.886c-0.322-0.244-0.654-0.472-0.981-0.707
	c-0.376-0.27-0.749-0.544-1.133-0.801c-0.339-0.227-0.687-0.439-1.031-0.657c-0.387-0.245-0.771-0.493-1.164-0.725
	c-0.353-0.209-0.715-0.402-1.074-0.601c-0.397-0.22-0.792-0.443-1.196-0.651c-0.368-0.19-0.742-0.364-1.115-0.544
	c-0.406-0.195-0.811-0.393-1.224-0.576c-0.38-0.169-0.765-0.323-1.15-0.482c-0.417-0.171-0.832-0.344-1.255-0.503
	c-0.389-0.147-0.784-0.28-1.178-0.416c-0.427-0.147-0.854-0.296-1.286-0.43c-0.398-0.124-0.801-0.236-1.204-0.349
	c-0.437-0.123-0.873-0.246-1.314-0.356c-0.407-0.101-0.817-0.191-1.227-0.281c-0.445-0.098-0.89-0.194-1.338-0.279
	c-0.414-0.078-0.831-0.145-1.248-0.212c-0.453-0.072-0.905-0.143-1.361-0.202c-0.42-0.054-0.842-0.098-1.264-0.141
	c-0.46-0.047-0.921-0.09-1.385-0.122c-0.424-0.03-0.85-0.051-1.276-0.069c-0.269-0.012-0.534-0.036-0.804-0.043v-29.851
	c0-4.024-3.262-7.287-7.287-7.287s-7.287,3.262-7.287,7.287v31.856c-17.053,5.279-29.839,20.356-31.75,38.623h-2.942
	c-11.294,0-20.483,9.189-20.483,20.483s9.189,20.483,20.483,20.483h442.894c11.294,0,20.483-9.189,20.483-20.483
	C497.927,480.223,488.738,471.034,477.444,471.034z M239.333,26.46c0-0.001,0.001-0.001,0.001-0.001l3.089-4.627
	c3.034-4.545,8.109-7.258,13.574-7.258c5.465,0,10.54,2.713,13.574,7.259l48.278,72.308h-5.202l-46.103-69.053
	c-2.358-3.531-6.3-5.639-10.546-5.639c-4.246,0-8.189,2.108-10.546,5.639L199.347,94.14h-5.202l8.778-13.148L239.333,26.46z
	 M295.124,94.14H216.87l39.127-58.604L295.124,94.14z M79.816,29.7h139.831L209.51,44.883L176.622,94.14H63.081L79.816,29.7z
	 M60.948,114.809v-6.096h119.571h22.725h105.507h22.725h119.571v6.096h-15.581H76.528H60.948z M428.179,129.382v143.233H83.815
	V129.382H428.179z M76.528,294.013c-0.003,0-0.006,0-0.009,0h-9.415c-1.881,0-3.412-1.531-3.412-3.413
	c0-1.881,1.53-3.412,3.412-3.412h9.424h358.937h9.424c1.881,0,3.412,1.531,3.412,3.412c0,1.882-1.53,3.413-3.412,3.413h-9.415
	c-0.003,0-0.006,0-0.009,0H76.528z M360.416,470.893c0.317-0.187,0.638-0.368,0.967-0.535c0.156-0.079,0.316-0.149,0.474-0.223
	c0.28-0.131,0.562-0.256,0.85-0.371c0.183-0.073,0.368-0.142,0.553-0.208c0.272-0.098,0.547-0.187,0.824-0.271
	c0.201-0.06,0.402-0.121,0.605-0.174c0.276-0.072,0.556-0.132,0.836-0.19c0.207-0.043,0.411-0.091,0.62-0.126
	c0.356-0.06,0.718-0.102,1.081-0.139c0.176-0.018,0.352-0.039,0.529-0.052c0.446-0.031,0.896-0.047,1.35-0.043
	c0.337,0.003,0.679,0.032,1.02,0.056c0.234,0.016,0.467,0.02,0.702,0.046c0.572,0.065,1.146,0.155,1.719,0.279
	c3.509,0.756,7.047-1.155,8.337-4.507c4.092-10.639,14.496-17.787,25.891-17.787c7.95,0,15.533,3.428,20.806,9.406
	c0.21,0.238,0.433,0.46,0.669,0.666c0.013,0.011,0.028,0.02,0.041,0.032c0.932,0.804,2.043,1.355,3.23,1.608
	c0.903,0.193,1.848,0.216,2.787,0.051c10.416-1.831,19.964,3.868,23.922,12.624h-98.061
	C360.25,470.985,360.334,470.942,360.416,470.893z M220.956,347.815h70.082v123.219h-70.082L220.956,347.815L220.956,347.815z
	 M77.797,445.352c0.767-0.121,1.536-0.215,2.305-0.279c0.066-0.005,0.132-0.009,0.198-0.014c0.784-0.06,1.567-0.096,2.343-0.096
	c10.689,0,20.465,5.424,26.15,14.509c1.188,1.899,3.185,3.147,5.414,3.381c0.523,0.055,1.038,0.135,1.549,0.226
	c0.115,0.02,0.23,0.041,0.345,0.063c0.5,0.097,0.995,0.208,1.483,0.338c0.063,0.017,0.125,0.037,0.189,0.055
	c0.444,0.123,0.881,0.261,1.313,0.411c0.099,0.034,0.199,0.067,0.298,0.103c0.467,0.169,0.927,0.353,1.379,0.553
	c0.088,0.039,0.175,0.081,0.263,0.122c0.403,0.185,0.8,0.38,1.19,0.588c0.074,0.039,0.148,0.076,0.222,0.116
	c0.431,0.236,0.852,0.488,1.265,0.752c0.094,0.06,0.187,0.122,0.28,0.184c0.388,0.257,0.769,0.523,1.139,0.803
	c0.032,0.024,0.066,0.047,0.098,0.072c0.392,0.3,0.77,0.617,1.141,0.943c0.087,0.077,0.174,0.154,0.26,0.232
	c0.365,0.331,0.722,0.671,1.064,1.027c0.029,0.03,0.056,0.062,0.084,0.092c0.319,0.336,0.625,0.683,0.923,1.039
	c0.072,0.086,0.145,0.172,0.216,0.26c0.053,0.066,0.101,0.136,0.154,0.202H52.181C54.229,457.868,64.643,447.439,77.797,445.352z
	 M477.444,497.427H34.55c-3.259,0-5.91-2.651-5.91-5.91s2.651-5.91,5.91-5.91h10.072h95.774h73.273h84.655h47.638h121.445h10.037
	c3.259,0,5.91,2.651,5.91,5.91S480.703,497.427,477.444,497.427z"/>
<path d="M99.423,246.146h10.623h65.543h10.624c4.025,0,7.287-3.262,7.287-7.287c0-4.024-3.262-7.287-7.287-7.287h-3.338v-65.746
	c0-5.724-4.657-10.38-10.38-10.38h-59.356c-5.724,0-10.38,4.657-10.38,10.38v65.746h-3.337c-4.025,0-7.287,3.262-7.287,7.287
	C92.136,242.883,95.398,246.146,99.423,246.146z M117.333,170.019h50.97v61.554h-50.97V170.019z"/>
<path d="M212.877,246.146h10.624h65.543h10.624c4.025,0,7.287-3.262,7.287-7.287c0-4.024-3.262-7.287-7.287-7.287h-3.338v-65.746
	c0-5.724-4.657-10.38-10.38-10.38h-59.355c-5.724,0-10.38,4.657-10.38,10.38v65.746h-3.338c-4.025,0-7.287,3.262-7.287,7.287
	C205.591,242.883,208.853,246.146,212.877,246.146z M230.788,170.019h50.97v61.554h-50.97L230.788,170.019L230.788,170.019z"/>
<path d="M325.781,246.146h10.624h65.543h10.624c4.025,0,7.287-3.262,7.287-7.287c0-4.024-3.262-7.287-7.287-7.287h-3.338v-65.746
	c0-5.724-4.657-10.38-10.379-10.38h-59.356c-5.724,0-10.38,4.657-10.38,10.38v65.746h-3.338c-4.025,0-7.287,3.262-7.287,7.287
	C318.494,242.883,321.756,246.146,325.781,246.146z M343.691,170.019h50.97v61.554h-50.97V170.019z"/>
<path d="M172.19,343.693h-53.886c-5.566,0-10.095,4.529-10.095,10.095v60.045h-0.528c-4.025,0-7.287,3.262-7.287,7.287
	s3.262,7.287,7.287,7.287h7.814h59.504h7.814c4.025,0,7.287-3.262,7.287-7.287s-3.262-7.287-7.287-7.287h-0.528v-60.045
	C182.285,348.222,177.756,343.693,172.19,343.693z M167.712,413.833h-44.931v-55.567h44.931V413.833z"/>
<path d="M393.691,343.693h-53.886c-5.566,0-10.096,4.529-10.096,10.095v60.045h-0.528c-4.025,0-7.287,3.262-7.287,7.287
	s3.262,7.287,7.287,7.287h7.814H396.5h7.814c4.025,0,7.287-3.262,7.287-7.287s-3.262-7.287-7.287-7.287h-0.528v-60.045
	C403.786,348.222,399.257,343.693,393.691,343.693z M389.213,413.833h-44.932v-55.567h44.932V413.833z"/>
<path d="M276.545,405.089c-4.025,0-7.287,3.262-7.287,7.287v12.63c0,4.024,3.262,7.287,7.287,7.287s7.287-3.262,7.287-7.287v-12.63
	C283.832,408.352,280.57,405.089,276.545,405.089z"/>
<g>
</g>
<g>
</g>
<g>
</g>
<g>
</g>
<g>
</g>
<g>
</g>
<g>
</g>
<g>
</g>
<g>
</g>
<g>
</g>
<g>
</g>
<g>
</g>
<g>
</g>
<g>
</g>
<g>
</g>
</svg>
