<?xml version="1.0" ?><svg id="Layer_1" style="enable-background:new 0 0 96 96;" version="1.1" viewBox="0 0 96 96" xml:space="preserve" xmlns="http://www.w3.org/2000/svg" xmlns:xlink="http://www.w3.org/1999/xlink"><style type="text/css">
	.st0{fill-rule:evenodd;clip-rule:evenodd;fill:#8E5745;}
	.st1{fill-rule:evenodd;clip-rule:evenodd;fill:#70ADB3;}
	.st2{fill-rule:evenodd;clip-rule:evenodd;fill:#B29867;}
	.st3{fill-rule:evenodd;clip-rule:evenodd;fill:#A25641;}
	.st4{fill-rule:evenodd;clip-rule:evenodd;fill:#D1D3D4;}
	.st5{fill-rule:evenodd;clip-rule:evenodd;fill:#00AEEF;}
</style><g id="XMLID_2_"><polygon class="st0" id="XMLID_21_" points="12.4,12 84.4,12 96.4,36 0.4,36  "/><rect class="st1" height="58" id="XMLID_20_" width="80.8" x="7.7" y="36"/><rect class="st2" height="20" id="XMLID_19_" width="12" x="20.4" y="2"/><rect class="st3" height="6" id="XMLID_18_" width="16" x="18.4" y="0"/><g id="XMLID_3_"><polygon class="st4" id="XMLID_17_" points="32.2,74.9 16.2,74.9 16.2,46.9 44.2,46.9 44.2,74.9   "/><path class="st5" d="M20.2,50.9h8v8h-8V50.9L20.2,50.9z M20.2,62.9h8v8h-8V62.9L20.2,62.9z M32.2,50.9h8v8h-8V50.9    L32.2,50.9z M32.2,62.9h8v8h-8V62.9z" id="XMLID_12_"/><rect class="st3" height="3.1" id="XMLID_11_" width="32.2" x="14" y="74.9"/><polygon class="st4" id="XMLID_10_" points="68.1,74.9 52.1,74.9 52.1,46.9 80.1,46.9 80.1,74.9   "/><path class="st5" d="M56.1,50.9h8v8h-8V50.9L56.1,50.9z M56.1,62.9h8v8h-8V62.9L56.1,62.9z M68,50.9h8v8h-8V50.9    L68,50.9z M68,62.9h8v8h-8V62.9z" id="XMLID_5_"/><rect class="st3" height="3.1" id="XMLID_4_" width="32.2" x="49.9" y="74.9"/></g></g></svg>