<?xml version="1.0" encoding="iso-8859-1"?>
<!-- Generator: Adobe Illustrator 19.0.0, SVG Export Plug-In . SVG Version: 6.00 Build 0)  -->
<svg version="1.1" id="Capa_1" xmlns="http://www.w3.org/2000/svg" xmlns:xlink="http://www.w3.org/1999/xlink" x="0px" y="0px"
	 viewBox="0 0 512 512" style="enable-background:new 0 0 512 512;" xml:space="preserve">
<path style="fill:#FFE1A0;" d="M422.527,97.357L422.527,97.357c-11.66,0-23.085-3.277-32.972-9.456l-12.199-7.625
	c-13.234-8.271-28.525-12.656-44.13-12.656H178.772c-15.606,0-30.897,4.385-44.13,12.656l-12.199,7.625
	c-9.888,6.179-21.312,9.456-32.972,9.456l0,0c-9.854,0-17.843-7.988-17.843-17.843v124.38H440.37V79.514
	C440.37,89.369,432.382,97.357,422.527,97.357z"/>
<path style="fill:#C4DEFF;" d="M424.338,187.862H87.66c-22.136,0-40.081,17.945-40.081,40.081v40.081h416.839v-40.081
	C464.418,205.806,446.474,187.862,424.338,187.862z"/>
<path style="fill:#A5CDFF;" d="M79.644,187.862h64.129v80.161H47.58v-48.097C47.58,202.218,61.935,187.862,79.644,187.862z"/>
<g>
	<path style="fill:#DCEBFF;" d="M376.241,219.926h-96.194c-13.282,0-24.048-10.767-24.048-24.048v-32.065
		c0-13.282,10.767-24.048,24.048-24.048h96.194c13.282,0,24.048,10.767,24.048,24.048v32.065
		C400.289,209.159,389.522,219.926,376.241,219.926z"/>
	<path style="fill:#DCEBFF;" d="M231.951,219.926h-96.194c-13.282,0-24.048-10.767-24.048-24.048v-32.065
		c0-13.282,10.767-24.048,24.048-24.048h96.194c13.282,0,24.048,10.767,24.048,24.048v32.065
		C255.999,209.159,245.232,219.926,231.951,219.926z"/>
</g>
<path style="fill:#FFE1A0;" d="M480.451,260.007L480.451,260.007c-15.716,0-31.114-4.417-44.44-12.745l-16.443-10.277
	c-17.836-11.147-38.447-17.058-59.48-17.058H151.911c-21.033,0-41.643,5.911-59.48,17.058l-16.443,10.277
	c-13.326,8.329-28.725,12.745-44.44,12.745h-0.001c-13.282,0-24.048-10.767-24.048-24.048v144.29h497v-144.29
	C504.499,249.24,493.732,260.007,480.451,260.007z"/>
<g>
	<path style="fill:#C4DEFF;" d="M135.757,171.83v-32.065c-13.282,0-24.048,10.767-24.048,24.048v32.065
		c0,13.282,10.767,24.048,24.048,24.048h96.194c13.282,0,24.048-10.767,24.048-24.048h-96.194
		C146.524,195.878,135.757,185.111,135.757,171.83z"/>
	<path style="fill:#C4DEFF;" d="M280.047,171.83v-32.065c-13.282,0-24.048,10.767-24.048,24.048v32.065
		c0,13.282,10.767,24.048,24.048,24.048h96.194c13.282,0,24.048-10.767,24.048-24.048h-96.194
		C290.814,195.878,280.047,185.111,280.047,171.83z"/>
</g>
<path d="M504.499,212.427c-4.142,0-7.5,3.357-7.5,7.5v16.032c0,9.125-7.424,16.548-16.549,16.548c-2.861,0-5.708-0.167-8.531-0.484
	v-24.081c0-17.679-9.699-33.125-24.048-41.328V67.62c0-4.143-3.358-7.5-7.5-7.5s-7.5,3.357-7.5,7.5v11.895
	c0,5.703-4.64,10.343-10.343,10.343c-10.265,0-20.292-2.876-28.996-8.316l-12.2-7.625c-14.441-9.026-31.076-13.796-48.105-13.796
	H178.772c-17.03,0-33.665,4.771-48.105,13.796l-12.2,7.625c-8.705,5.44-18.731,8.316-28.997,8.316
	c-5.703,0-10.342-4.64-10.342-10.343V67.62c0-4.143-3.358-7.5-7.5-7.5s-7.5,3.357-7.5,7.5v118.995
	c-14.349,8.203-24.048,23.649-24.048,41.328v24.081c-2.823,0.317-5.67,0.484-8.532,0.484c-9.125,0-16.548-7.423-16.548-16.548
	v-16.032c0-4.143-3.358-7.5-7.5-7.5s-7.5,3.357-7.5,7.5v224.451c0,4.142,3.358,7.5,7.5,7.5s7.5-3.358,7.5-7.5v-56.63h482v56.629
	c0,4.142,3.358,7.5,7.5,7.5s7.5-3.358,7.5-7.5V219.927C511.999,215.784,508.641,212.427,504.499,212.427z M456.918,248.792
	c-5.915-1.917-11.602-4.558-16.933-7.891l-16.443-10.277c-8.033-5.021-16.586-9.03-25.47-12.004
	c5.983-5.745,9.718-13.813,9.718-22.743v-0.516h16.548c17.965,0,32.581,14.616,32.581,32.581L456.918,248.792L456.918,248.792z
	 M135.757,212.427c-9.125,0-16.549-7.424-16.549-16.549v-32.064c0-9.125,7.424-16.548,16.549-16.548h16.033
	c4.142,0,7.5-3.358,7.5-7.5s-3.358-7.5-7.5-7.5h-11.119c2.369-1.25,4.699-2.586,6.983-4.013l12.206-7.631
	c5.674-3.546,12.214-5.421,18.913-5.421h154.451c6.699,0,13.239,1.875,18.912,5.419l12.199,7.629
	c2.287,1.428,4.62,2.765,6.991,4.016h-91.28c-9.628,0-18.257,4.34-24.048,11.161c-5.792-6.821-14.42-11.161-24.048-11.161h-48.097
	c-4.142,0-7.5,3.358-7.5,7.5s3.358,7.5,7.5,7.5h48.097c9.125,0,16.548,7.423,16.548,16.548v32.064
	c0,9.125-7.423,16.549-16.548,16.549L135.757,212.427L135.757,212.427z M263.499,195.878v-32.064
	c0-9.125,7.423-16.548,16.548-16.548h96.193c9.125,0,16.549,7.423,16.549,16.548v32.064c0,9.125-7.424,16.549-16.549,16.549h-96.193
	C270.922,212.427,263.499,205.003,263.499,195.878z M79.128,102.641c3.161,1.419,6.66,2.216,10.343,2.216
	c13.079,0,25.855-3.664,36.946-10.596l12.2-7.625c12.054-7.534,25.94-11.516,40.155-11.516h154.453
	c14.215,0,28.101,3.982,40.155,11.517l12.2,7.625c11.091,6.932,23.868,10.596,36.947,10.596c3.683,0,7.182-0.796,10.342-2.216
	v78.501c-2.77-0.504-5.619-0.781-8.532-0.781h-16.548v-45.369c0-3.441-2.342-6.441-5.681-7.276
	c-0.063-0.016-0.128-0.031-0.193-0.046c-10.506-2.339-20.477-6.425-29.63-12.143l-12.197-7.628c-8.062-5.037-17.351-7.7-26.863-7.7
	H178.773c-9.513,0-18.802,2.663-26.863,7.702l-12.204,7.629c-9.152,5.717-19.12,9.801-29.627,12.141
	c-3.43,0.764-5.87,3.807-5.87,7.32v45.369H87.66c-2.914,0-5.762,0.277-8.532,0.781C79.128,181.142,79.128,102.641,79.128,102.641z
	 M55.08,227.942c0-17.965,14.616-32.581,32.581-32.581h16.548v0.516c0,8.93,3.735,16.999,9.718,22.743
	c-8.885,2.974-17.437,6.983-25.47,12.004l-16.443,10.277c-5.332,3.332-11.019,5.974-16.933,7.891v-20.85H55.08z M14.999,372.749
	V262.804c4.815,2.979,10.483,4.703,16.549,4.703c17.139,0,33.88-4.801,48.415-13.885l16.443-10.277
	c16.663-10.414,35.855-15.918,55.504-15.918h208.177c19.649,0,38.842,5.504,55.504,15.918l16.443,10.277
	c14.534,9.084,31.276,13.885,48.416,13.885c6.065,0,11.734-1.724,16.548-4.703v109.945H14.999z"/>
<path d="M465.387,291.612c-16.668-2.171-32.361-7.796-46.643-16.719l-16.452-10.281c-12.664-7.919-27.258-12.104-42.205-12.104
	H151.911c-14.946,0-29.542,4.186-42.209,12.104l-16.449,10.284c-14.283,8.921-29.976,14.545-46.642,16.716
	c-3.736,0.487-6.531,3.669-6.531,7.437v41.12c0,4.142,3.358,7.5,7.5,7.5h368.74c4.142,0,7.5-3.358,7.5-7.5s-3.358-7.5-7.5-7.5H55.08
	v-27.197c16.391-2.966,31.877-8.958,46.123-17.855l16.451-10.286c10.28-6.426,22.126-9.823,34.257-9.823h208.177
	c12.131,0,23.976,3.396,34.254,9.824l16.454,10.283c14.243,8.898,29.731,14.892,46.123,17.858v27.197h-8.53
	c-4.142,0-7.5,3.358-7.5,7.5s3.358,7.5,7.5,7.5h16.03c4.142,0,7.5-3.358,7.5-7.5v-41.12
	C471.918,295.281,469.123,292.098,465.387,291.612z"/>
<g>
</g>
<g>
</g>
<g>
</g>
<g>
</g>
<g>
</g>
<g>
</g>
<g>
</g>
<g>
</g>
<g>
</g>
<g>
</g>
<g>
</g>
<g>
</g>
<g>
</g>
<g>
</g>
<g>
</g>
</svg>
