<svg height="512" viewBox="0 0 64 64" width="512" xmlns="http://www.w3.org/2000/svg"><g id="Layer_10" data-name="Layer 10"><path d="m58 56h-52a4 4 0 0 1 -4-4v-32h60v32a4 4 0 0 1 -4 4z" fill="#c8cded"/><path d="m58 48v-28h-56v32h52a4 4 0 0 0 4-4z" fill="#e2e7f6"/><path d="m22 36h8v8h-8z" fill="#6bc13b"/><path d="m28 41v-5h-6v6h5a1 1 0 0 0 1-1z" fill="#7bdf45"/><path d="m34 36h8v8h-8z" fill="#6bc13b"/><path d="m40 41v-5h-6v6h5a1 1 0 0 0 1-1z" fill="#7bdf45"/><path d="m62 20h-60v-8a4 4 0 0 1 4-4h52a4 4 0 0 1 4 4z" fill="#4d8c28"/><path d="m2 12v4h55a1 1 0 0 0 1-1v-7h-52a4 4 0 0 0 -4 4z" fill="#559b2d"/><g fill="#f0ae42"><rect height="12" rx="2" width="6" x="8" y="2"/><rect height="12" rx="2" width="6" x="22" y="2"/><rect height="12" rx="2" width="6" x="36" y="2"/><rect height="12" rx="2" width="6" x="50" y="2"/></g><circle cx="32" cy="51" fill="#b52f28" r="11"/><path d="m40 50a10.99 10.99 0 0 0 -6.061-9.819 10.99 10.99 0 0 0 -6.878 20.638 10.955 10.955 0 0 0 12.939-10.819z" fill="#d23f34"/><path d="m32 59a2 2 0 1 1 2-2 2 2 0 0 1 -2 2z" fill="#f2f2f2"/><path d="m30.8 52.019-.412-2.058a20.183 20.183 0 0 1 -.388-3.961 2 2 0 0 1 2-2 2 2 0 0 1 2 2 20.183 20.183 0 0 1 -.392 3.961l-.408 2.058a1.22 1.22 0 0 1 -1.2.981 1.22 1.22 0 0 1 -1.2-.981z" fill="#f2f2f2"/><path d="m10 24h8v8h-8z" fill="#6bc13b"/><path d="m16 29v-5h-6v6h5a1 1 0 0 0 1-1z" fill="#7bdf45"/><path d="m34 24h8v8h-8z" fill="#6bc13b"/><path d="m46 24h8v8h-8z" fill="#6bc13b"/><path d="m10 36h8v8h-8z" fill="#6bc13b"/><path d="m54.707 36.707-1.414-1.414-3.293 3.293-3.293-3.293-1.414 1.414 3.293 3.293-3.293 3.293 1.414 1.414 3.293-3.293 3.293 3.293 1.414-1.414-3.293-3.293z" fill="#b52f28"/><path d="m29.293 23.293-3.293 3.293-3.293-3.293-1.414 1.414 3.293 3.293-3.293 3.293 1.414 1.414 3.293-3.293 3.293 3.293 1.414-1.414-3.293-3.293 3.293-3.293z" fill="#b52f28"/><path d="m53 10v-8h-1a2 2 0 0 0 -2 2v7h2a1 1 0 0 0 1-1z" fill="#f9d266"/><path d="m39 10v-8h-1a2 2 0 0 0 -2 2v7h2a1 1 0 0 0 1-1z" fill="#f9d266"/><path d="m25 10v-8h-1a2 2 0 0 0 -2 2v7h2a1 1 0 0 0 1-1z" fill="#f9d266"/><path d="m11 10v-8h-1a2 2 0 0 0 -2 2v7h2a1 1 0 0 0 1-1z" fill="#f9d266"/><path d="m40 29v-5h-6v6h5a1 1 0 0 0 1-1z" fill="#7bdf45"/><path d="m52 29v-5h-6v6h5a1 1 0 0 0 1-1z" fill="#7bdf45"/><path d="m16 41v-5h-6v6h5a1 1 0 0 0 1-1z" fill="#7bdf45"/><path d="m58 7h-1v-3a3 3 0 0 0 -3-3h-2a3 3 0 0 0 -3 3v3h-6v-3a3 3 0 0 0 -3-3h-2a3 3 0 0 0 -3 3v3h-6v-3a3 3 0 0 0 -3-3h-2a3 3 0 0 0 -3 3v3h-6v-3a3 3 0 0 0 -3-3h-2a3 3 0 0 0 -3 3v3h-1a5.006 5.006 0 0 0 -5 5v40a5.006 5.006 0 0 0 5 5h15.624a11.972 11.972 0 0 0 20.752 0h15.624a5.006 5.006 0 0 0 5-5v-40a5.006 5.006 0 0 0 -5-5zm-7-3a1 1 0 0 1 1-1h2a1 1 0 0 1 1 1v8a1 1 0 0 1 -1 1h-2a1 1 0 0 1 -1-1zm-14 0a1 1 0 0 1 1-1h2a1 1 0 0 1 1 1v8a1 1 0 0 1 -1 1h-2a1 1 0 0 1 -1-1zm-14 0a1 1 0 0 1 1-1h2a1 1 0 0 1 1 1v8a1 1 0 0 1 -1 1h-2a1 1 0 0 1 -1-1zm-14 0a1 1 0 0 1 1-1h2a1 1 0 0 1 1 1v8a1 1 0 0 1 -1 1h-2a1 1 0 0 1 -1-1zm-3 5h1v3a3 3 0 0 0 3 3h2a3 3 0 0 0 3-3v-3h6v3a3 3 0 0 0 3 3h2a3 3 0 0 0 3-3v-3h6v3a3 3 0 0 0 3 3h2a3 3 0 0 0 3-3v-3h6v3a3 3 0 0 0 3 3h2a3 3 0 0 0 3-3v-3h1a3 3 0 0 1 3 3v7h-58v-7a3 3 0 0 1 3-3zm26 52a10 10 0 1 1 10-10 10.011 10.011 0 0 1 -10 10zm-9-18v-6h6v2.4a12 12 0 0 0 -5.919 3.6zm18 0h-.081a12 12 0 0 0 -5.919-3.6v-2.4h6zm17 12h-14.7a11.846 11.846 0 0 0 -.965-10.068.991.991 0 0 0 .665-.932v-8a1 1 0 0 0 -1-1h-8a1 1 0 0 0 -1 1v3.051c-.331-.028-.662-.051-1-.051s-.669.023-1 .051v-3.051a1 1 0 0 0 -1-1h-8a1 1 0 0 0 -1 1v8a.991.991 0 0 0 .665.932 11.846 11.846 0 0 0 -.965 10.068h-14.7a3 3 0 0 1 -3-3v-31h58v31a3 3 0 0 1 -3 3z"/><circle cx="32" cy="57" r="2"/><path d="m32 43a3 3 0 0 0 -3 3 21.255 21.255 0 0 0 .412 4.157l.411 2.059a2.22 2.22 0 0 0 4.354 0l.411-2.059a21.255 21.255 0 0 0 .412-4.157 3 3 0 0 0 -3-3zm.627 6.765-.411 2.058a.229.229 0 0 1 -.432 0l-.411-2.058a19.2 19.2 0 0 1 -.373-3.765 1 1 0 0 1 2 0 19.2 19.2 0 0 1 -.373 3.765z"/><path d="m18 23h-8a1 1 0 0 0 -1 1v8a1 1 0 0 0 1 1h8a1 1 0 0 0 1-1v-8a1 1 0 0 0 -1-1zm-1 8h-6v-6h6z"/><path d="m42 23h-8a1 1 0 0 0 -1 1v8a1 1 0 0 0 1 1h8a1 1 0 0 0 1-1v-8a1 1 0 0 0 -1-1zm-1 8h-6v-6h6z"/><path d="m54 23h-8a1 1 0 0 0 -1 1v8a1 1 0 0 0 1 1h8a1 1 0 0 0 1-1v-8a1 1 0 0 0 -1-1zm-1 8h-6v-6h6z"/><path d="m18 35h-8a1 1 0 0 0 -1 1v8a1 1 0 0 0 1 1h8a1 1 0 0 0 1-1v-8a1 1 0 0 0 -1-1zm-1 8h-6v-6h6z"/><path d="m53.293 35.293-3.293 3.293-3.293-3.293-1.414 1.414 3.293 3.293-3.293 3.293 1.414 1.414 3.293-3.293 3.293 3.293 1.414-1.414-3.293-3.293 3.293-3.293z"/><path d="m29.293 23.293-3.293 3.293-3.293-3.293-1.414 1.414 3.293 3.293-3.293 3.293 1.414 1.414 3.293-3.293 3.293 3.293 1.414-1.414-3.293-3.293 3.293-3.293z"/></g></svg>