<svg xmlns="http://www.w3.org/2000/svg" viewBox="0 0 500 500"><g id="freepik--Floor--inject-57"><ellipse cx="250" cy="354.2" rx="223.32" ry="128.94" style="fill:#f5f5f5"></ellipse></g><g id="freepik--Furniture--inject-57"><polygon points="415.61 221.04 415.63 353.01 458.37 328.31 458.37 196.47 415.61 221.04" style="fill:#e6e6e6"></polygon><polygon points="343.02 311.09 415.63 353.01 415.63 221.16 343.04 179.37 343.02 311.09" style="fill:#ebebeb"></polygon><polygon points="343.02 179.24 415.63 221.16 458.37 196.47 385.79 154.67 343.02 179.24" style="fill:#f5f5f5"></polygon><path d="M351.53,227.5l55.17,31.86a1.59,1.59,0,0,0,2.38-1.37V230a3.91,3.91,0,0,0-2-3.39L352,194.87a1.59,1.59,0,0,0-2.38,1.38v27.86A3.9,3.9,0,0,0,351.53,227.5Z" style="fill:#fafafa"></path><path d="M384.19,220.49a1.08,1.08,0,0,1-.54-.15l-9.74-5.6a1.1,1.1,0,0,1,1.09-1.9l9.74,5.61a1.09,1.09,0,0,1-.55,2Z" style="fill:#e0e0e0"></path><path d="M351.53,266.58l55.17,31.85a1.59,1.59,0,0,0,2.38-1.37v-28a3.92,3.92,0,0,0-2-3.39L352,234a1.59,1.59,0,0,0-2.38,1.37v27.86A3.91,3.91,0,0,0,351.53,266.58Z" style="fill:#fafafa"></path><path d="M384.19,259.56a1.17,1.17,0,0,1-.54-.14l-9.74-5.61a1.1,1.1,0,0,1,1.09-1.9l9.74,5.61a1.09,1.09,0,0,1-.55,2Z" style="fill:#e0e0e0"></path><path d="M351.53,305.65,406.7,337.5a1.59,1.59,0,0,0,2.38-1.37v-28a3.92,3.92,0,0,0-2-3.39L352,273a1.59,1.59,0,0,0-2.38,1.37v27.87A3.91,3.91,0,0,0,351.53,305.65Z" style="fill:#fafafa"></path><path d="M384.19,298.63a1.06,1.06,0,0,1-.54-.14l-9.74-5.61a1.09,1.09,0,0,1-.4-1.49A1.08,1.08,0,0,1,375,291l9.74,5.6a1.09,1.09,0,0,1,.4,1.49A1.07,1.07,0,0,1,384.19,298.63Z" style="fill:#e0e0e0"></path></g><g id="freepik--Pictures--inject-57"><polygon points="388.41 88.15 388.41 123.42 418.96 141.05 418.96 105.78 388.41 88.15 388.41 88.15" style="fill:#fafafa"></polygon><path d="M391.72,90.05,419,105.78v31.45l-27.24-15.72V90.05m-1.66-2.86-1.65,1v35.27L419,141.05l1.65-1V104.83L390.06,87.19Z" style="fill:#e0e0e0"></path><path d="M390.06,91l27.24,15.73v31.45l-27.24-15.73V91m-1.65-2.86v35.27L419,141.05V105.78L388.41,88.15Z" style="fill:#ebebeb"></path><polygon points="392.89 115.35 416 128.69 409.17 110.93 404.45 116.54 399.61 109.66 392.89 115.35" style="fill:#e0e0e0"></polygon><path d="M400.91,104.27a4.65,4.65,0,0,0,2.11,3.65c1.16.67,2.11.12,2.11-1.22a4.67,4.67,0,0,0-2.11-3.65C401.85,102.38,400.91,102.92,400.91,104.27Z" style="fill:#e0e0e0"></path><polygon points="428.11 130.84 428.11 158.94 452.44 172.99 452.44 144.89 428.11 130.84 428.11 130.84" style="fill:#fafafa"></polygon><path d="M430.74,132.37l21.7,12.52V170l-21.7-12.53v-25m-1.32-2.29-1.31.76v28.1L452.44,173l1.32-.76v-28.1l-24.34-14Z" style="fill:#e0e0e0"></path><path d="M429.42,133.13l21.7,12.52v25.06l-21.7-12.53V133.13m-1.31-2.29v28.1L452.44,173v-28.1l-24.33-14Z" style="fill:#ebebeb"></path><polygon points="431.68 152.51 450.08 163.14 444.65 148.99 440.88 153.47 437.03 147.98 431.68 152.51" style="fill:#e0e0e0"></polygon><path d="M438.06,143.69a3.72,3.72,0,0,0,1.68,2.91c.93.53,1.68.1,1.68-1a3.7,3.7,0,0,0-1.68-2.91C438.81,142.18,438.06,142.62,438.06,143.69Z" style="fill:#e0e0e0"></path></g><g id="freepik--Plant--inject-57"><path d="M416.07,353.12s-10.64-10.39-4.58-27.79c3.39-9.75,14.63-16.91,21-17.59a29.92,29.92,0,0,0-5,8.44l-8.06,5.36,7.41-2.32-1.58,6.34s-6.89,4.17-7.91,5.08l7.43-1.94S424.24,346.66,416.07,353.12Z" style="fill:#5D555F"></path><path d="M416.07,353.12s-10.64-10.39-4.58-27.79c3.39-9.75,14.63-16.91,21-17.59a29.92,29.92,0,0,0-5,8.44l-8.06,5.36,7.41-2.32-1.58,6.34s-6.89,4.17-7.91,5.08l7.43-1.94S424.24,346.66,416.07,353.12Z" style="opacity:0.4"></path><path d="M416.07,353.12s-5.51-21.74,2.64-34.42C418.71,318.7,409.16,329.89,416.07,353.12Z" style="fill:#fff"></path><path d="M428.24,356.06l-13-.16h-.13l-13,.16s-.15,16,4.79,22.56h0c1.37,1.74,4.56,3,8.29,3s6.94-1.23,8.3-3C428.39,372.08,428.24,356.06,428.24,356.06Z" style="fill:#37474f"></path><path d="M428.24,356.06c0,3.88-5.85,7-13.08,7s-13.08-3.15-13.08-7,5.86-7,13.08-7S428.24,352.18,428.24,356.06Z" style="fill:#455a64"></path><path d="M415.16,354.2c4.5,0,8.31,1.44,9.66,3.44a2.81,2.81,0,0,0,.52-1.58c0-2.77-4.56-5-10.18-5s-10.18,2.25-10.18,5a2.75,2.75,0,0,0,.53,1.58C406.85,355.64,410.66,354.2,415.16,354.2Z" style="fill:#263238"></path><path d="M415.16,354.2c-4.5,0-8.31,1.44-9.65,3.44,1.34,2,5.15,3.45,9.65,3.45s8.31-1.45,9.66-3.45C423.47,355.64,419.66,354.2,415.16,354.2Z" style="fill:#e0e0e0"></path><path d="M415.32,358.51s-5-.19-9.36-6.89c-1.79-2.76-2.65-4.21-2.65-4.21l7-.53-7.87-2-3.72-5.69,6.53-.49a32.62,32.62,0,0,0-8.34-1.73s-6-10.64-7.79-12.16A34.2,34.2,0,0,1,413,336.68C422.87,348.39,416.79,358.81,415.32,358.51Z" style="fill:#5D555F"></path><path d="M415.32,358.51s3.16-19-17-30.42C398.35,328.09,419.24,338.13,415.32,358.51Z" style="fill:#fff"></path><path d="M415.32,358.51s4.57.3,9.1-5.33c1.87-2.33,2.78-3.56,2.78-3.56l-6.29-1.13,7.29-1,3.89-4.79-5.85-1.05a29.3,29.3,0,0,1,7.69-.77s6.44-9,8.17-10.24A31,31,0,0,0,419.51,339C409.47,348.67,414,358.64,415.32,358.51Z" style="fill:#5D555F"></path><path d="M415.32,358.51s4.57.3,9.1-5.33c1.87-2.33,2.78-3.56,2.78-3.56l-6.29-1.13,7.29-1,3.89-4.79-5.85-1.05a29.3,29.3,0,0,1,7.69-.77s6.44-9,8.17-10.24A31,31,0,0,0,419.51,339C409.47,348.67,414,358.64,415.32,358.51Z" style="opacity:0.2"></path><path d="M415.32,358.51s-1.06-17.43,18.18-25.85C433.5,332.66,413.71,339.75,415.32,358.51Z" style="fill:#fff"></path></g><g id="freepik--Envelope--inject-57"><path d="M216.79,115.85,212.24,114l-.46-.19-.05,0h0a5.94,5.94,0,0,0-5,.45L50.59,204.38A21.55,21.55,0,0,0,39.8,223.06V359a8.23,8.23,0,0,0,12.35,7.12l156.29-90.23a14.67,14.67,0,0,0,7.33-12.71V119.5a6,6,0,0,0-.76-2.94Z" style="fill:#5D555F"></path><path d="M216.79,115.85,212.24,114l-.46-.19-.05,0h0a5.94,5.94,0,0,0-5,.45L50.59,204.38A21.55,21.55,0,0,0,39.8,223.06V359a8.23,8.23,0,0,0,12.35,7.12l156.29-90.23a14.67,14.67,0,0,0,7.33-12.71V119.5a6,6,0,0,0-.76-2.94Z" style="opacity:0.30000000000000004"></path><path d="M219.91,121.14V264.87a14.64,14.64,0,0,1-7.34,12.7L56.28,367.81a8.24,8.24,0,0,1-12.35-7.13v-136a21.53,21.53,0,0,1,2.81-10.63l0,0a15.54,15.54,0,0,1,5.83-5.75L214,115.09a6.08,6.08,0,0,1,5.89,6Z" style="fill:#5D555F"></path><path d="M219.91,121.14V264.87a14.64,14.64,0,0,1-7.34,12.7L56.28,367.81a8.24,8.24,0,0,1-12.35-7.13v-136a21.53,21.53,0,0,1,2.81-10.63l0,0a15.54,15.54,0,0,1,5.83-5.75L214,115.09a6.08,6.08,0,0,1,5.89,6Z" style="opacity:0.1"></path><path d="M212.57,277.57,56.28,367.81a8.15,8.15,0,0,1-8,.13L141.6,227.49l78.31,37.37A14.67,14.67,0,0,1,212.57,277.57Z" style="fill:#5D555F"></path><path d="M212.57,277.57,56.28,367.81a8.15,8.15,0,0,1-8,.13L141.6,227.49l78.31,37.37A14.67,14.67,0,0,1,212.57,277.57Z" style="opacity:0.2"></path><path d="M217.28,116.16,153.55,249.47A21.1,21.1,0,0,1,124,258.64L46.74,214.08h0a15,15,0,0,1,5.57-5.63L214,115.09A6,6,0,0,1,217.28,116.16Z" style="fill:#5D555F"></path></g><g id="freepik--Letter--inject-57"><path d="M62.78,171.28l45.78-26.44V112.07L75.29,130.41a24.16,24.16,0,0,0-12.51,21.17Z" style="fill:#5D555F"></path><path d="M62.78,171.28l45.78-26.44V112.07L75.29,130.41a24.16,24.16,0,0,0-12.51,21.17Z" style="fill:#fff;opacity:0.5"></path><path d="M252,44.37,247.81,42a34.84,34.84,0,0,0-35,.07L81.88,118.35a38.45,38.45,0,0,0-19.1,33.23,19.62,19.62,0,0,1,29.54-16.93l5.48,3.21a37.89,37.89,0,0,1,18.75,32.69V365.09l-8.93,22.67,16.77-10.21h0L259.2,299.33A31.56,31.56,0,0,0,274.93,272V84.16A46,46,0,0,0,252,44.37Z" style="fill:#5D555F"></path><path d="M252,44.37,247.81,42a34.84,34.84,0,0,0-35,.07L81.88,118.35a38.45,38.45,0,0,0-19.1,33.23,19.62,19.62,0,0,1,29.54-16.93l5.48,3.21a37.89,37.89,0,0,1,18.75,32.69V365.09l-8.93,22.67,16.77-10.21h0L259.2,299.33A31.56,31.56,0,0,0,274.93,272V84.16A46,46,0,0,0,252,44.37Z" style="fill:#fff;opacity:0.7000000000000001"></path><path d="M68.21,370.08s9.39,13.73,24.48,18.28c16.23,4.89,23.86-5.87,23.86-20.14V342.41Z" style="fill:#5D555F"></path><path d="M68.21,370.08s9.39,13.73,24.48,18.28c16.23,4.89,23.86-5.87,23.86-20.14V342.41Z" style="fill:#fff;opacity:0.5"></path><path d="M145.72,232a1.49,1.49,0,0,1-.74-2.77l100-57.76a1.48,1.48,0,0,1,1.48,2.57l-100,57.76A1.52,1.52,0,0,1,145.72,232Z" style="fill:#fff"></path><path d="M145.72,254.15a1.48,1.48,0,0,1-.74-2.76l100-57.77a1.48,1.48,0,0,1,1.48,2.57L146.46,254A1.52,1.52,0,0,1,145.72,254.15Z" style="fill:#fff"></path><path d="M145.72,276.29a1.48,1.48,0,0,1-.74-2.76l100-57.76a1.48,1.48,0,0,1,1.48,2.56l-100,57.76A1.52,1.52,0,0,1,145.72,276.29Z" style="fill:#fff"></path><path d="M145.72,298.43a1.48,1.48,0,0,1-.74-2.76l100-57.76a1.48,1.48,0,0,1,1.48,2.56l-100,57.76A1.42,1.42,0,0,1,145.72,298.43Z" style="fill:#fff"></path><path d="M145.72,320.57a1.48,1.48,0,0,1-.74-2.76l100-57.76a1.48,1.48,0,0,1,1.48,2.56l-100,57.76A1.42,1.42,0,0,1,145.72,320.57Z" style="fill:#fff"></path><path d="M211.39,304.79a1.46,1.46,0,0,1-1.28-.74,1.48,1.48,0,0,1,.54-2L245,282.19a1.48,1.48,0,0,1,1.48,2.56L212.13,304.6A1.51,1.51,0,0,1,211.39,304.79Z" style="fill:#fff"></path><path d="M215.36,148.64l-28.82,16.64v-14.2c0-9.87,6-21.34,13.41-25.62l2-1.15c7.4-4.28,13.41.26,13.41,10.13Z" style="fill:#5D555F"></path><polygon points="222.07 153.35 179.83 177.74 186.54 162.2 215.36 145.56 222.07 153.35" style="fill:#5D555F"></polygon><path d="M201,129.57c-1.25.72-2.26.14-2.26-1.3v-5.53a5,5,0,0,1,2.26-3.91c1.24-.72,2.25-.14,2.25,1.3v5.54A5,5,0,0,1,201,129.57Z" style="fill:#5D555F"></path><path d="M196.15,170.4c.12,2.87,2.22,4,4.8,2.51a10.67,10.67,0,0,0,4.79-8Z" style="fill:#5D555F"></path></g><g id="freepik--speech-bubble--inject-57"><circle cx="343.02" cy="106.13" r="21.03" style="fill:#5D555F"></circle><path d="M339.27,122.48s1.88,6.68-5.73,12.88c0,0,11.72-1.18,12.36-12.32Z" style="fill:#5D555F"></path><path d="M345.09,108.07h-4.52l-1.13-10.85h6.78Zm-2.26,7a3.1,3.1,0,0,1-3.31-3,3.33,3.33,0,0,1,6.62,0A3.1,3.1,0,0,1,342.83,115.05Z" style="fill:#fff"></path></g></svg>