<svg id="Capa_1" enable-background="new 0 0 512 512" height="512" viewBox="0 0 512 512" width="512" xmlns="http://www.w3.org/2000/svg"><g><path d="m85.859 269.69h340.283v195.876h-340.283z" fill="#f9eed7"/><path d="m396.141 269.69h30v195.876h-30z" fill="#f2e4c8"/><path d="m85.859 269.69h340.283v42.664h-340.283z" fill="#ffcd75"/><path d="m134.826 70.193h242.348v136.803h-242.348z" fill="#f9eed7"/><path d="m389.904 70.193h-267.808c-4.565 0-7.057-5.327-4.13-8.831l2.409-2.884c10.739-12.855 17.855-28.342 20.615-44.863l.216-1.292c.465-2.784 2.874-4.823 5.696-4.823h218.056c2.845 0 5.266 2.072 5.706 4.883 2.611 16.69 9.662 32.37 20.414 45.399l2.976 3.606c2.897 3.508.4 8.805-4.15 8.805z" fill="#5d656e"/><path d="m442.274 269.69h-372.548c-4.565 0-7.057-5.327-4.13-8.831l2.409-2.884c10.739-12.855 17.855-28.342 20.615-44.863l.216-1.292c.465-2.784 2.874-4.823 5.696-4.823h322.796c2.845 0 5.266 2.072 5.706 4.883 2.611 16.69 9.662 32.37 20.415 45.399l2.976 3.606c2.896 3.508.4 8.805-4.151 8.805z" fill="#5d656e"/><path d="m456.645 504.5h-401.29c-3.479 0-6.3-2.821-6.3-6.3v-26.334c0-3.479 2.821-6.3 6.3-6.3h401.29c3.479 0 6.3 2.821 6.3 6.3v26.334c0 3.479-2.82 6.3-6.3 6.3z" fill="#c9c9c9"/><path d="m456.645 465.566h-30c3.479 0 6.3 2.821 6.3 6.3v26.334c0 3.479-2.821 6.3-6.3 6.3h30c3.479 0 6.3-2.821 6.3-6.3v-26.334c0-3.479-2.82-6.3-6.3-6.3z" fill="#b8b8b8"/><path d="m234.304 465.566h-99.478v-115.299c0-3.579 2.901-6.48 6.48-6.48h86.518c3.579 0 6.48 2.901 6.48 6.48z" fill="#d88a55"/><path d="m376.988 422.371h-90.67c-4.344 0-7.865-3.521-7.865-7.865v-62.853c0-4.344 3.521-7.865 7.865-7.865h90.67c4.344 0 7.865 3.521 7.865 7.865v62.853c.001 4.343-3.521 7.865-7.865 7.865z" fill="#ffdf8e"/><path d="m329.544 206.996h-147.088v-83.304c0-7.393 5.993-13.386 13.386-13.386h120.315c7.393 0 13.386 5.993 13.386 13.386v83.304z" fill="#ffdf8e"/><path d="m396.141 269.69h30v42.664h-30z" fill="#ffc069"/><path d="m347.174 70.193h30v136.803h-30z" fill="#f2e4c8"/><path d="m394.054 61.387-2.976-3.605c-10.753-13.028-17.804-28.709-20.414-45.398-.44-2.811-2.861-4.883-5.706-4.883h-30c2.845 0 5.266 2.072 5.706 4.883 2.611 16.689 9.662 32.37 20.414 45.398l2.976 3.605c2.896 3.51.4 8.807-4.15 8.807h30c4.55-.001 7.047-5.298 4.15-8.807z" fill="#495057"/><path d="m446.425 260.883-2.976-3.606c-10.753-13.028-17.804-28.709-20.415-45.398-.44-2.811-2.861-4.883-5.706-4.883h-30c2.845 0 5.266 2.072 5.706 4.883 2.611 16.69 9.662 32.37 20.415 45.398l2.976 3.606c2.896 3.509.4 8.806-4.15 8.806h30c4.55.001 7.046-5.296 4.15-8.806z" fill="#495057"/><path d="m227.825 343.787h-30c3.579 0 6.48 2.901 6.48 6.48v115.299h30v-115.299c-.001-3.578-2.902-6.48-6.48-6.48z" fill="#b5703e"/><path d="m376.988 343.787h-30c4.344 0 7.865 3.521 7.865 7.865v62.853c0 4.344-3.521 7.865-7.865 7.865h30c4.344 0 7.865-3.522 7.865-7.865v-62.853c.001-4.343-3.521-7.865-7.865-7.865z" fill="#ffcd75"/><path d="m316.157 110.306h-30c7.393 0 13.387 5.993 13.387 13.386v83.304h30v-83.304c0-7.393-5.993-13.386-13.387-13.386z" fill="#ffcd75"/><g><path d="m456.645 458.066h-23.004v-180.876h8.633c5.039 0 9.504-2.832 11.652-7.39 2.148-4.559 1.49-9.804-1.718-13.69l-2.976-3.607c-9.89-11.982-16.388-26.432-18.789-41.782-1.017-6.504-6.533-11.225-13.116-11.225h-32.654v-121.803h5.23c5.039 0 9.504-2.831 11.652-7.39 2.149-4.559 1.49-9.804-1.718-13.691l-2.977-3.604c-9.891-11.985-16.388-26.434-18.788-41.783-1.016-6.504-6.531-11.225-13.114-11.225h-145.095c-4.143 0-7.5 3.357-7.5 7.5s3.357 7.5 7.5 7.5h143.63c2.992 17.463 10.512 33.877 21.801 47.556l.114.138h-258.785c11.277-13.712 18.787-30.183 21.739-47.694h41.501c4.143 0 7.5-3.357 7.5-7.5s-3.357-7.5-7.5-7.5h-42.961c-6.514 0-12.021 4.663-13.094 11.088l-.216 1.292c-2.538 15.191-9.099 29.47-18.975 41.291l-2.407 2.884c-3.241 3.88-3.924 9.135-1.782 13.715 2.142 4.579 6.612 7.424 11.668 7.424h5.229v121.803h-32.793c-6.514 0-12.021 4.663-13.094 11.089l-.216 1.291c-2.539 15.192-9.1 29.471-18.973 41.291l-2.41 2.884c-3.241 3.88-3.924 9.135-1.782 13.715 2.142 4.579 6.613 7.424 11.669 7.424h8.633v180.877h-23.004c-7.609 0-13.8 6.19-13.8 13.8v26.332c0 7.609 6.191 13.8 13.8 13.8h290.818c4.143 0 7.5-3.357 7.5-7.5s-3.357-7.5-7.5-7.5h-289.618v-23.934h398.89v23.934h-79.271c-4.143 0-7.5 3.357-7.5 7.5s3.357 7.5 7.5 7.5h80.472c7.609 0 13.8-6.19 13.8-13.8v-26.334c-.001-7.609-6.191-13.8-13.801-13.8zm-119.601-258.57v-29.092h32.63v29.092zm-147.088-29.092h22.44v29.092h-22.44zm132.088-15h-132.088v-31.712c0-3.246 2.641-5.887 5.887-5.887h120.315c3.245 0 5.886 2.641 5.886 5.887zm-94.648 15h21.604v29.092h-21.604zm36.604 0h22.604v29.092h-22.604zm37.604 0h20.44v29.092h-20.44zm68.07-92.711v77.711h-32.63v-31.712c0-11.517-9.369-20.887-20.886-20.887h-120.315c-11.517 0-20.887 9.37-20.887 20.887v31.712h-32.63v-77.711zm-227.348 92.711h32.63v29.092h-32.63zm-46.333 44.092h319.87c2.994 17.465 10.514 33.879 21.802 47.555l.114.139h-363.526c11.277-13.71 18.786-30.181 21.74-47.694zm322.648 62.694v27.664h-325.282v-27.664zm-325.282 42.663h325.282v138.213h-176.837v-107.798c0-7.709-6.271-13.98-13.979-13.98h-36.007c-4.143 0-7.5 3.357-7.5 7.5s3.357 7.5 7.5 7.5h34.986v25.244h-84.479v-25.244h19.492c4.143 0 7.5-3.357 7.5-7.5s-3.357-7.5-7.5-7.5h-20.512c-7.709 0-13.98 6.271-13.98 13.98v107.799h-33.966zm133.445 95.609h-35.078v-23.931h35.078zm-50.078 0h-34.4v-23.931h34.4zm-34.4 15h34.4v27.604h-34.4zm49.4 0h35.078v27.604h-35.078z"/><path d="m286.318 429.871h90.67c8.473 0 15.365-6.894 15.365-15.366v-62.853c0-8.473-6.893-15.365-15.365-15.365h-90.67c-8.473 0-15.365 6.893-15.365 15.365v62.853c0 8.473 6.892 15.366 15.365 15.366zm91.035-78.219v62.853c0 .202-.164.366-.365.366h-37.835v-63.584h37.835c.201 0 .365.164.365.365zm-91.4 0c0-.201.164-.365.365-.365h37.835v63.584h-37.835c-.201 0-.365-.164-.365-.366z"/></g></g></svg>